<?xml version="1.0" standalone="no"?>
<!DOCTYPE svg PUBLIC "-//W3C//DTD SVG 20010904//EN"
 "http://www.w3.org/TR/2001/REC-SVG-20010904/DTD/svg10.dtd">
<svg version="1.0" xmlns="http://www.w3.org/2000/svg"
 width="1441.000000pt" height="1513.000000pt" viewBox="0 0 1441.000000 1513.000000"
 preserveAspectRatio="xMidYMid meet">
<metadata>
Created by potrace 1.15, written by Peter Selinger 2001-2017
</metadata>
<g transform="translate(0.000000,1513.000000) scale(0.100000,-0.100000)"
fill="#000000" stroke="none">
<path d="M446 15108 c29 -91 31 -169 7 -246 -23 -71 -80 -123 -171 -153 -86
-28 -122 -55 -122 -89 0 -14 4 -30 8 -36 13 -14 32 -88 32 -122 0 -33 18 -83
35 -94 15 -11 12 -119 -5 -153 -19 -36 -142 -141 -174 -147 -13 -3 -31 -1 -40
4 -14 8 -16 1 -16 -50 0 -54 2 -60 24 -66 34 -9 142 -177 171 -268 34 -109 40
-173 21 -249 -15 -58 -15 -69 -2 -107 25 -71 6 -301 -31 -374 -18 -37 -81 -68
-138 -68 l-45 0 0 -241 0 -240 58 7 c31 3 95 20 142 37 87 31 119 55 170 130
37 53 89 85 146 89 62 4 63 19 9 83 -22 26 -44 55 -50 64 -5 9 -10 81 -10 161
0 138 -1 148 -28 205 -30 64 -36 121 -17 170 6 16 33 66 60 110 62 101 86 186
101 355 13 150 27 202 66 242 33 35 81 37 130 7 37 -23 217 -88 245 -89 9 0
39 11 66 25 88 44 222 44 177 -1 -7 -8 -18 -14 -24 -14 -35 0 -37 -88 -2 -132
27 -34 61 -97 61 -112 0 -7 7 -19 16 -26 13 -11 23 -10 60 8 27 13 64 22 92
22 41 0 53 -5 79 -32 68 -70 69 -121 6 -187 -73 -76 -135 -80 -212 -15 l-42
36 -67 -16 c-106 -25 -116 -25 -163 -5 -57 26 -76 44 -99 96 -10 24 -24 43
-29 43 -6 0 -22 -18 -35 -39 -25 -38 -74 -81 -95 -81 -20 0 -91 -76 -114 -122
-22 -43 -23 -53 -15 -110 13 -82 34 -125 70 -144 63 -32 118 -13 118 40 0 33
40 71 106 99 88 38 137 36 180 -7 40 -40 44 -76 14 -138 -26 -55 -26 -61 11
-95 17 -15 37 -41 46 -57 8 -16 23 -38 33 -48 17 -18 20 -19 42 -4 13 9 38 33
54 53 63 81 107 123 129 123 17 0 29 -14 55 -67 58 -119 51 -215 -22 -298 -42
-48 -92 -75 -137 -75 -43 0 -98 24 -126 54 -15 16 -32 25 -40 22 -8 -3 -15 -1
-15 4 0 16 -46 12 -60 -5 -7 -8 -16 -12 -21 -9 -5 3 -13 -6 -18 -19 -5 -13
-21 -33 -35 -45 -14 -11 -26 -26 -26 -34 0 -7 -18 -29 -40 -48 -53 -45 -69
-84 -45 -110 10 -11 25 -17 38 -13 12 2 33 7 47 10 14 3 34 12 45 19 11 8 27
14 37 14 10 0 18 7 18 15 0 19 53 20 72 1 27 -27 94 -54 149 -61 62 -8 156
-50 173 -78 12 -20 15 -16 -89 -101 l-48 -39 31 -26 c18 -14 48 -39 67 -54 19
-16 35 -33 35 -37 0 -5 -18 -28 -40 -51 -23 -25 -42 -56 -44 -73 -3 -17 -10
-68 -16 -114 -12 -92 -20 -114 -71 -192 -47 -72 -59 -110 -59 -184 0 -76 -13
-161 -45 -293 -29 -120 -30 -129 -10 -167 18 -34 19 -57 4 -90 -11 -24 -40
-40 -134 -74 -69 -24 -75 -40 -75 -203 0 -149 -18 -247 -63 -336 -13 -26 -34
-79 -46 -118 -25 -81 -37 -102 -109 -179 -63 -69 -78 -96 -87 -161 -10 -71
-26 -105 -71 -150 -60 -60 -80 -69 -104 -47 -15 14 -20 33 -21 73 -1 62 9 127
22 135 16 10 9 50 -17 100 -29 53 -32 85 -19 216 l8 78 -37 52 c-31 46 -36 61
-36 110 0 51 -9 68 -35 68 -2 0 -26 -22 -53 -50 -49 -49 -76 -59 -117 -44 -8
4 -29 34 -44 68 -16 33 -46 88 -66 121 -34 57 -36 63 -29 115 11 78 12 150 2
150 -13 0 -49 -23 -85 -54 l-33 -29 0 -1194 0 -1193 50 26 c65 34 95 71 110
136 7 29 30 86 51 127 42 77 87 185 133 311 16 45 49 105 81 150 30 41 55 81
55 89 0 19 30 102 43 119 5 6 16 12 25 12 12 0 14 -14 8 -98 -6 -84 -5 -105
12 -147 21 -53 28 -107 38 -300 6 -132 -2 -185 -42 -272 -13 -31 -22 -63 -19
-74 9 -28 101 -106 141 -119 29 -10 46 -8 102 8 117 35 117 35 252 1 111 -27
133 -36 160 -64 l32 -33 -23 -21 c-12 -11 -45 -27 -74 -36 -28 -8 -66 -25 -85
-37 -36 -25 -124 -148 -133 -188 -8 -33 1 -44 43 -56 48 -13 65 -50 65 -144 0
-61 -4 -82 -23 -112 -19 -30 -30 -38 -53 -38 -17 0 -39 5 -49 10 -32 17 -70
94 -81 162 -6 34 -21 82 -34 105 -14 23 -31 68 -39 100 -13 59 -56 137 -80
146 -53 21 -163 -28 -185 -81 -6 -15 -15 -73 -20 -130 -8 -87 -15 -115 -47
-182 l-37 -79 7 -119 c6 -100 4 -134 -14 -221 -34 -165 -38 -172 -102 -203
-98 -47 -108 -73 -77 -190 11 -41 10 -56 -9 -125 -12 -43 -27 -109 -32 -147
-13 -84 -11 -80 -87 -159 l-63 -65 0 -192 c0 -148 4 -202 16 -240 15 -45 15
-53 0 -96 -14 -42 -16 -154 -16 -1026 0 -923 1 -979 17 -984 42 -13 93 -38 93
-44 0 -5 19 -15 42 -25 23 -9 54 -25 70 -36 33 -24 33 -24 119 58 93 89 114
138 105 256 -5 77 -2 102 20 180 30 107 26 100 84 167 80 92 97 147 66 208
-22 43 -50 62 -113 79 -32 8 -68 24 -80 35 -34 32 -80 127 -87 183 -4 28 -18
86 -31 130 -39 128 -40 150 -11 238 43 129 34 325 -20 438 -33 71 -29 105 26
185 22 32 49 83 61 113 21 50 22 59 11 125 -11 63 -10 79 8 140 10 38 17 73
14 78 -3 5 -3 27 1 49 6 35 14 45 54 69 25 16 64 43 87 59 58 44 115 61 203
61 53 0 83 5 97 15 13 10 15 17 8 22 -6 5 -13 13 -15 19 -6 18 -71 95 -103
124 -71 62 -98 100 -61 87 8 -4 17 -2 21 4 3 5 15 7 27 3 12 -4 48 -6 81 -5
49 1 66 -3 98 -24 47 -31 74 -85 58 -115 -6 -11 -11 -42 -12 -68 -2 -46 2 -54
71 -145 109 -145 108 -171 -12 -286 -71 -68 -89 -100 -90 -160 0 -46 32 -153
73 -246 30 -68 37 -204 16 -305 -23 -109 -21 -158 9 -202 45 -66 91 -60 140
19 62 97 118 116 180 61 60 -52 74 -92 85 -238 11 -146 10 -161 -33 -245 -42
-83 -42 -146 1 -239 55 -120 51 -203 -19 -363 -11 -24 -19 -66 -19 -95 -1
-103 -47 -161 -128 -161 -76 1 -126 47 -156 143 -22 71 -37 102 -56 117 -50
41 -64 -15 -45 -177 22 -186 50 -250 110 -250 45 0 89 -26 148 -88 91 -96 100
-127 94 -296 -6 -150 -7 -157 -78 -323 -51 -121 -50 -146 8 -258 45 -87 46
-93 54 -210 5 -66 11 -150 15 -187 6 -57 3 -73 -15 -112 -30 -61 -66 -89 -158
-123 -74 -27 -103 -48 -165 -122 -22 -26 -33 -32 -59 -29 -82 8 -123 146 -101
333 7 51 12 162 12 245 0 147 1 154 36 258 31 93 37 125 43 242 7 114 13 149
40 228 34 99 37 148 8 166 -15 9 -24 5 -51 -25 -33 -36 -56 -104 -56 -167 0
-33 -16 -96 -36 -139 -20 -43 -66 -80 -124 -97 -93 -28 -105 -42 -125 -156 -3
-19 -15 -63 -27 -97 -30 -90 -22 -150 29 -235 23 -38 45 -93 53 -126 12 -59
12 -74 -10 -222 -8 -60 -7 -92 5 -160 8 -47 15 -119 15 -160 0 -41 7 -107 15
-145 17 -83 19 -194 4 -265 -23 -106 -116 -180 -254 -199 -66 -10 -70 -12
-126 -70 -67 -71 -98 -78 -142 -33 -62 64 -79 204 -54 433 9 79 19 180 22 224
15 204 87 581 140 735 14 41 32 118 40 170 21 134 34 175 77 255 29 53 38 82
38 118 0 63 -23 107 -55 107 -14 0 -25 -4 -25 -8 0 -4 -20 -29 -45 -55 -106
-109 -196 -56 -225 133 -6 41 -15 79 -20 84 -7 7 -10 -658 -10 -1812 l0 -1822
228 0 229 0 6 97 c8 120 26 182 84 290 49 91 92 143 118 143 29 0 91 -72 116
-135 21 -52 24 -77 25 -185 0 -69 1 -144 2 -167 l2 -43 1701 0 c1604 0 1703 1
1714 17 13 17 14 17 32 0 24 -21 64 -22 140 -2 32 8 85 20 118 25 53 9 64 15
110 62 28 29 63 61 78 71 38 25 37 55 -2 49 -32 -4 -71 22 -71 50 0 20 55 34
94 24 13 -3 35 0 49 7 29 15 108 9 114 -9 2 -7 -4 -19 -13 -29 -15 -14 -15
-18 -3 -26 9 -6 -2 -7 -31 -4 -41 4 -43 3 -26 -10 26 -20 85 -20 92 0 4 9 19
15 41 15 19 0 32 4 29 9 -3 5 1 12 10 15 9 4 14 9 11 13 -10 9 12 43 29 43 8
0 13 4 10 9 -3 4 5 6 18 4 27 -6 56 -67 56 -120 0 -34 -42 -93 -66 -93 -8 0
-14 -4 -14 -10 0 -5 -5 -10 -11 -10 -5 0 -7 5 -3 12 10 16 -92 4 -132 -16 -17
-9 -74 -34 -125 -56 l-94 -39 50 -1 c28 0 59 6 70 13 11 8 43 19 70 26 28 7
60 17 73 22 34 13 26 4 -25 -30 l-46 -31 149 0 150 0 12 83 c25 167 37 515 29
847 -1 36 2 103 7 150 4 47 7 95 7 108 0 13 5 22 14 22 10 0 13 -10 10 -37 -2
-21 -5 -38 -5 -38 -1 0 -3 -144 -5 -320 -4 -480 -13 -665 -39 -762 l-14 -53
660 0 c651 0 660 0 665 20 3 11 13 20 22 19 10 0 11 -2 4 -6 -7 -2 -13 -9 -13
-14 0 -6 4 -7 10 -4 5 3 10 1 10 -4 0 -8 731 -11 2447 -11 l2446 0 -7 212 c-4
117 -11 232 -17 256 -5 23 -14 149 -19 280 -5 131 -16 276 -24 322 -8 47 -17
141 -21 210 -9 162 -40 440 -59 521 -8 35 -24 106 -36 157 -17 73 -26 183 -45
509 l-24 416 29 23 c54 46 171 238 298 489 61 121 96 176 141 226 122 134 146
288 81 509 -13 42 -23 123 -30 225 -10 170 -39 339 -70 408 -14 30 -16 45 -8
52 7 7 12 6 15 -2 2 -7 10 -10 17 -7 16 6 31 -27 16 -36 -15 -9 -4 -92 14
-102 10 -6 16 -23 16 -44 0 -50 16 -73 64 -95 23 -10 51 -27 61 -39 27 -30 41
-25 72 28 22 37 28 59 28 108 0 33 -5 67 -12 75 -7 9 -8 20 -4 28 5 7 6 22 3
33 -4 16 -13 19 -66 18 -92 -2 -120 9 -127 51 -3 19 -11 44 -17 56 -7 12 -8
24 -3 27 5 3 11 19 13 36 4 25 1 31 -18 36 -43 11 -59 -2 -62 -52 -3 -53 -17
-90 -25 -64 -3 8 -10 72 -16 141 -14 152 -32 262 -72 429 -41 173 -42 179 -28
157 8 -14 14 -16 25 -6 25 21 -10 87 -40 76 -10 -4 -24 30 -54 126 -22 73 -38
134 -36 136 2 2 13 -6 23 -18 l20 -22 6 45 c4 24 5 49 2 53 -3 5 -7 52 -8 104
-1 52 -8 108 -15 125 -8 19 -11 51 -7 87 5 45 3 57 -8 57 -8 0 -10 3 -4 8 6 4
16 15 24 25 14 18 13 18 -25 12 -51 -10 -64 -22 -33 -34 18 -7 20 -10 9 -15
-11 -5 -14 -18 -12 -50 2 -26 -1 -48 -10 -57 -16 -17 -24 -89 -10 -89 13 0 25
-48 15 -63 -4 -7 -6 -21 -4 -32 6 -40 -8 -6 -67 160 -46 130 -64 198 -77 290
-10 66 -21 125 -25 130 -10 15 -60 161 -60 178 0 11 25 15 128 20 73 3 128 1
130 -4 5 -12 52 -12 52 0 0 12 22 19 97 31 62 10 83 28 83 69 0 39 -20 102
-30 96 -5 -3 -28 -8 -52 -11 -24 -2 -57 -7 -75 -10 -34 -5 -94 15 -118 40 -18
17 -19 86 -5 172 17 94 20 105 30 99 6 -3 10 -1 10 6 0 8 13 10 40 6 29 -4 47
-14 67 -37 14 -18 31 -37 37 -44 6 -6 19 -23 29 -38 24 -38 41 -35 62 10 23
50 76 93 123 99 36 5 41 2 97 -56 33 -33 65 -61 70 -61 22 0 105 93 106 119 0
14 2 35 4 46 3 11 0 47 -6 80 -6 33 -13 83 -15 110 -11 112 -34 132 -132 115
-54 -9 -85 -8 -157 3 -49 9 -78 15 -63 16 28 1 51 21 24 21 -20 0 67 85 124
120 8 5 32 10 53 10 21 0 52 6 70 14 l33 13 -3 94 c-2 52 -8 106 -14 122 -7
16 -9 47 -5 77 4 27 2 78 -3 112 -6 35 -13 88 -16 119 -5 48 -10 58 -36 73
-32 19 -40 34 -84 156 -21 56 -39 86 -71 117 -24 23 -44 45 -44 50 0 4 -16 32
-35 60 -19 29 -35 60 -35 70 0 10 -14 61 -30 113 -16 52 -30 117 -30 145 0 90
-25 22 -44 -123 -17 -125 -17 -137 -1 -217 22 -112 12 -225 -28 -301 -24 -46
-69 -94 -89 -94 -9 0 -29 -14 -45 -31 -15 -17 -43 -46 -60 -65 -18 -19 -33
-41 -33 -49 0 -14 56 -57 122 -92 l37 -20 -68 -104 c-37 -57 -78 -113 -91
-124 -23 -20 -75 -92 -97 -132 -11 -22 -2 -40 15 -29 5 3 17 -7 27 -20 26 -35
72 -57 103 -49 16 4 28 1 33 -7 7 -10 9 -10 9 2 0 13 1 13 10 0 6 -10 10 -11
10 -2 0 6 8 12 18 11 11 0 13 -2 4 -6 -16 -6 17 -32 51 -39 12 -2 38 -8 57
-13 l35 -9 -35 -2 c-54 -2 -152 -25 -144 -33 4 -4 2 -7 -4 -7 -7 0 -12 4 -12
10 0 5 -16 14 -36 19 -32 9 -45 6 -101 -21 -35 -17 -68 -39 -74 -49 -5 -11
-15 -19 -21 -19 -7 0 -21 -9 -33 -20 l-22 -21 -11 28 c-6 15 -25 82 -43 148
-36 140 -115 347 -187 494 -58 116 -87 160 -141 209 -30 29 -32 33 -13 29 24
-6 23 -10 27 120 1 45 8 87 20 113 10 22 15 43 12 46 -3 4 -46 9 -94 11 -48 3
-110 11 -137 19 -64 18 -63 18 -90 -11 l-24 -26 -29 28 c-16 15 -47 53 -69 83
-21 30 -44 61 -51 67 -6 7 -26 39 -44 70 -18 32 -41 65 -50 73 -35 32 -89 109
-140 199 -48 85 -59 98 -118 136 -92 59 -117 65 -281 76 -80 4 -190 18 -245
30 -80 17 -153 23 -365 29 -155 4 -280 12 -302 19 -20 6 -99 39 -175 72 -231
101 -293 120 -413 125 -58 3 -129 10 -158 16 l-53 11 -55 96 c-31 53 -65 108
-75 124 -11 15 -33 52 -48 82 -27 52 -29 61 -23 138 4 64 11 90 29 119 13 20
24 42 22 50 -5 41 2 58 24 58 34 0 82 26 95 52 7 13 16 44 21 71 7 38 6 47 -6
47 -9 0 -13 11 -11 36 1 20 -3 39 -10 43 -9 5 -10 15 -4 32 7 17 5 31 -6 47
-13 20 -14 36 -4 112 13 96 20 122 31 115 4 -2 20 3 35 11 22 11 68 14 205 12
124 -1 157 -3 111 -8 -46 -5 -54 -7 -26 -8 26 -1 45 -9 58 -24 15 -17 21 -19
27 -9 6 9 14 10 27 3 14 -7 25 -6 39 4 12 9 14 14 5 14 -7 0 -10 3 -6 7 4 4
-17 15 -46 24 -48 15 -51 17 -31 27 37 20 11 72 -37 72 -15 0 -33 7 -40 15 -8
10 -30 15 -64 15 -70 0 -127 11 -120 22 7 12 -25 48 -42 48 -7 0 -30 17 -51
37 l-37 37 -12 -29 -12 -29 -6 40 c-3 21 -5 53 -5 69 3 78 -83 325 -112 325
-5 0 -9 4 -9 9 0 5 11 8 24 7 44 -5 49 6 47 104 -1 57 2 97 9 106 7 7 12 29
13 49 1 44 35 89 60 80 9 -4 17 -13 17 -21 0 -10 13 -13 45 -12 41 2 49 -1 95
-47 27 -27 50 -54 50 -60 1 -17 58 -67 69 -61 6 4 8 19 5 34 -5 25 0 31 68 70
40 24 88 54 106 67 l34 24 22 -26 c28 -32 42 -25 57 30 7 23 16 47 19 52 15
21 22 106 9 121 -13 16 -75 19 -84 4 -4 -7 -13 -7 -26 0 -10 6 -25 10 -32 8
-22 -4 -91 24 -131 53 -22 16 -46 29 -53 29 -20 0 -148 131 -172 176 -12 22
-25 46 -31 54 -5 8 -11 27 -15 42 -4 20 -10 26 -21 21 -14 -5 -39 -49 -36 -65
2 -8 -74 -38 -98 -38 -12 0 -25 13 -35 34 -15 31 -15 37 -1 63 8 15 31 42 52
58 20 17 43 44 50 60 8 17 19 37 24 45 5 8 22 41 37 73 31 66 82 117 118 117
32 0 65 -33 65 -63 0 -23 1 -24 44 -13 25 7 53 19 64 29 10 9 31 17 46 17 29
0 66 33 90 82 14 26 13 30 -2 35 -9 4 -19 9 -22 12 -3 3 -22 14 -43 23 -27 13
-37 24 -37 41 0 14 -3 44 -6 68 -5 35 -2 49 15 70 19 25 22 26 78 16 32 -5 70
-19 86 -31 24 -17 28 -26 22 -51 -23 -117 -24 -113 6 -326 12 -92 12 -97 -9
-130 l-21 -35 32 -35 c86 -93 146 -121 177 -84 7 8 24 15 39 15 15 0 32 5 38
11 16 16 83 20 110 5 25 -13 34 -25 77 -111 30 -59 124 -165 148 -165 20 0 28
-20 28 -76 0 -46 -23 -104 -41 -104 -6 0 -7 -4 -4 -10 3 -5 -1 -10 -9 -10 -9
0 -16 -7 -16 -15 0 -8 -4 -15 -9 -15 -9 0 -37 -72 -45 -117 -9 -43 69 -106
158 -129 23 -5 27 -4 24 12 -2 13 4 20 19 22 18 3 23 12 29 50 4 26 17 63 30
83 23 38 75 97 77 90 1 -2 12 -1 25 3 14 5 31 2 45 -7 12 -8 52 -24 90 -37 37
-12 67 -27 67 -32 0 -5 5 -6 10 -3 6 3 10 -5 10 -18 0 -26 33 -54 79 -67 14
-3 41 -26 60 -51 21 -28 45 -47 65 -52 17 -4 40 -12 52 -18 12 -6 68 -12 125
-13 61 -1 113 -7 127 -15 33 -18 88 -11 84 11 -3 19 5 32 53 78 l30 30 -37 37
c-61 63 -67 69 -94 120 -60 109 -57 100 -41 142 27 67 50 165 48 209 -1 24
-13 69 -27 100 l-26 56 21 37 c26 46 27 81 1 97 -19 12 -29 62 -12 62 5 0 9 6
10 13 0 6 8 41 18 77 17 66 41 100 69 100 28 0 95 44 95 63 0 10 -13 26 -30
35 -29 17 -70 77 -70 103 0 8 5 31 11 52 13 47 59 71 168 88 51 8 79 17 91 31
26 31 41 45 85 82 32 27 41 42 43 71 2 20 -2 43 -8 51 -7 7 -9 18 -5 25 4 6 4
14 -1 18 -5 3 -16 19 -25 34 -14 26 -14 38 1 135 16 105 17 108 62 155 28 30
54 48 69 49 13 0 45 7 72 16 59 20 71 10 69 -55 -1 -64 -14 -96 -62 -153 -50
-60 -91 -179 -93 -273 -2 -51 2 -70 13 -77 11 -7 17 -4 22 9 8 23 59 44 106
44 66 -1 107 -5 90 -10 -10 -2 -18 -10 -19 -16 -3 -27 3 -64 16 -103 8 -23 15
-63 16 -89 3 -46 2 -48 -65 -111 -37 -35 -72 -64 -77 -64 -18 0 -20 -28 -5
-58 14 -26 14 -31 1 -36 -8 -3 -15 -16 -15 -28 0 -32 -24 -107 -50 -159 -18
-34 -21 -54 -17 -96 5 -48 32 -113 50 -121 4 -2 7 -12 7 -22 0 -11 7 -23 17
-28 14 -8 15 -20 8 -88 -5 -44 -8 -119 -6 -168 1 -52 -5 -122 -14 -168 -18
-86 -15 -111 11 -101 12 4 15 1 12 -13 -2 -14 -13 -20 -41 -22 -20 -2 -35 -7
-32 -13 4 -5 -3 -9 -14 -9 -23 0 -41 -47 -23 -59 14 -8 5 -22 -35 -50 -18 -12
-32 -25 -31 -29 3 -12 -39 -86 -59 -105 -18 -16 -19 -21 -7 -70 7 -28 15 -64
18 -78 3 -14 19 -40 36 -57 24 -26 38 -32 70 -32 61 0 106 -29 91 -59 -13 -26
-13 -119 0 -159 20 -64 23 -67 70 -67 l44 0 0 -47 c0 -27 -3 -48 -7 -48 -5 0
-8 7 -8 16 0 8 -5 12 -10 9 -5 -3 -10 -1 -10 4 0 17 -13 13 -42 -13 -27 -22
-38 -56 -19 -56 5 0 17 -18 27 -40 27 -60 63 -62 64 -3 0 29 10 53 22 53 6 0
22 13 37 30 26 29 26 29 61 14 19 -9 43 -20 52 -25 10 -5 27 -9 37 -9 11 0 26
-8 33 -19 26 -36 101 -38 113 -2 12 39 10 134 -3 139 -20 6 -34 50 -41 127 -6
75 -7 75 -98 121 -7 3 -13 15 -13 26 0 10 -6 18 -12 17 -53 -7 -72 24 -33 55
13 12 26 31 28 43 2 12 11 30 20 40 32 36 83 169 66 175 -5 2 -11 22 -14 46
-3 24 -12 54 -20 66 -8 12 -12 26 -8 29 3 4 1 7 -5 7 -7 0 -11 3 -10 8 2 12
-13 42 -22 42 -5 0 -12 -10 -16 -22 -11 -36 -30 -48 -74 -48 -23 0 -50 -5 -61
-10 -14 -8 -19 -7 -19 2 0 21 17 41 28 34 14 -8 52 28 52 50 0 16 -2 17 -10 4
-8 -12 -10 -11 -10 7 0 12 -5 23 -12 25 -6 2 -9 11 -6 19 5 12 19 15 67 12 34
-2 61 0 61 4 0 4 -7 31 -16 58 -13 43 -14 78 -5 260 6 116 12 244 14 286 2 72
4 79 40 123 46 55 90 80 175 97 48 10 65 10 74 1 12 -12 15 -96 6 -167 -3 -25
1 -59 12 -90 36 -107 40 -123 40 -172 0 -70 35 -145 98 -212 18 -19 48 -80 62
-128 12 -39 15 -42 59 -49 63 -11 84 -11 100 0 19 14 37 -14 44 -69 4 -25 13
-58 21 -73 21 -41 30 -116 16 -141 -16 -31 -50 -42 -75 -25 -26 19 -45 18 -45
-3 0 -9 -13 -31 -29 -48 -33 -34 -55 -107 -38 -124 12 -12 1 -107 -24 -221 -9
-43 -14 -51 -20 -35 -7 18 -8 17 -8 -6 -1 -39 34 -112 78 -163 48 -56 93 -133
122 -211 32 -87 61 -99 93 -40 16 29 25 35 52 35 18 0 39 -6 47 -14 8 -8 22
-14 33 -13 11 1 19 -4 19 -13 0 -9 10 -31 21 -51 24 -40 33 -78 41 -162 4 -52
2 -61 -23 -95 -71 -92 -85 -101 -141 -86 -21 6 -83 117 -83 150 0 24 -31 64
-49 64 -17 0 -35 -24 -62 -80 -9 -19 -35 -52 -59 -74 -41 -37 -45 -38 -99 -33
-31 3 -63 8 -72 12 -29 11 -52 -23 -45 -69 4 -22 11 -45 16 -51 5 -6 12 -37
16 -68 4 -31 10 -57 14 -57 4 0 10 -14 14 -31 3 -17 15 -43 25 -58 16 -22 18
-35 11 -64 -6 -29 -5 -37 6 -37 8 0 14 -4 14 -10 0 -5 6 -10 13 -10 8 0 12
-18 12 -57 l0 -58 100 1 c55 1 82 0 60 -2 -69 -7 -157 -25 -175 -36 -19 -12
-15 -51 14 -118 8 -19 19 -73 26 -120 19 -137 23 -145 88 -176 51 -24 67 -26
159 -25 78 1 110 -2 135 -15 41 -20 88 -63 88 -80 0 -7 5 -14 10 -16 6 -2 14
-26 19 -53 4 -28 16 -63 25 -80 9 -16 16 -37 16 -45 0 -8 9 -28 20 -45 12 -18
20 -47 20 -72 0 -24 3 -43 8 -43 7 0 55 -45 78 -73 7 -8 14 -23 16 -33 3 -17
12 -19 83 -17 69 2 81 5 97 25 23 29 17 74 -19 140 -20 37 -37 53 -82 75 l-56
28 -7 85 c-9 114 -42 284 -60 312 -30 46 -79 86 -99 81 -10 -3 -19 -9 -19 -13
0 -4 -18 -15 -39 -25 -41 -18 -81 -13 -81 10 0 7 -11 20 -25 29 -23 15 -25 21
-19 74 3 31 9 66 14 77 5 11 12 50 15 87 5 48 12 71 23 78 12 8 -4 10 -59 7
-61 -3 -76 -1 -72 10 3 7 9 13 13 13 5 0 7 10 5 23 -11 64 -9 90 5 97 8 4 24
12 36 18 12 6 43 13 70 17 136 19 133 16 127 98 -5 88 13 105 133 118 49 6 99
11 111 13 12 1 28 8 35 14 8 6 36 16 63 22 44 10 51 9 62 -7 8 -9 11 -24 8
-31 -3 -8 -5 -18 -5 -23 0 -5 -8 -9 -17 -9 -15 0 -16 -2 -3 -10 12 -8 12 -10
-5 -11 -11 0 -14 -3 -7 -6 20 -8 14 -23 -10 -24 -17 -1 -19 -2 -5 -6 9 -2 17
-9 17 -14 0 -5 9 -9 20 -9 11 0 20 -4 20 -8 0 -23 132 -43 145 -22 8 13 55 13
55 0 0 -5 -5 -10 -12 -10 -7 0 7 -12 30 -27 23 -15 42 -33 42 -39 0 -14 22
-24 53 -25 14 0 17 -2 7 -5 -61 -20 -90 -39 -91 -58 -3 -64 12 -116 46 -156
36 -43 33 -148 -8 -240 -12 -29 -23 -111 -17 -130 1 -3 3 -21 6 -40 5 -39 29
-63 56 -54 10 3 18 1 18 -5 0 -6 5 -11 11 -11 5 0 7 5 3 11 -5 9 1 10 21 5 15
-4 31 -3 34 2 3 6 17 12 31 13 14 2 28 8 31 12 3 5 9 2 12 -7 4 -9 1 -16 -6
-16 -8 0 -6 -4 3 -10 11 -7 0 -10 -38 -10 -64 0 -84 -9 -111 -54 -29 -46 -27
-72 7 -87 57 -25 83 -195 39 -260 -23 -35 -77 -67 -131 -79 -31 -6 -31 -6 -29
-70 1 -49 5 -67 20 -77 20 -15 20 -17 -2 -39 -8 -9 -13 -20 -10 -25 4 -5 1 -9
-4 -9 -6 0 -11 -10 -11 -22 0 -22 -4 -23 -103 -26 -94 -3 -104 -5 -122 -27
-12 -14 -26 -25 -33 -25 -20 0 -82 -33 -82 -44 0 -6 -5 -4 -11 4 -9 13 -10 13
-6 0 7 -25 85 -19 106 9 l17 22 12 -23 c29 -58 41 -129 35 -211 -4 -61 -1 -93
11 -127 24 -70 21 -155 -10 -220 -14 -30 -42 -109 -61 -175 -19 -66 -40 -126
-46 -134 -7 -8 -15 -64 -19 -125 -3 -61 -8 -120 -10 -131 -2 -15 3 -21 22 -23
39 -5 115 72 118 120 2 24 -2 35 -10 34 -15 -1 -18 5 -18 39 0 18 11 31 37 48
42 27 59 20 72 -31 6 -23 14 -28 52 -32 24 -3 43 -8 42 -12 -2 -5 -3 -15 -3
-23 0 -8 -12 -25 -27 -38 -74 -61 -102 -90 -98 -97 3 -4 -4 -19 -15 -33 -22
-28 -26 -59 -16 -137 9 -64 19 -80 46 -73 15 4 20 0 20 -15 0 -12 5 -24 10
-27 6 -4 8 -15 5 -26 -4 -10 -2 -19 3 -19 6 0 13 -11 16 -25 4 -17 13 -25 28
-25 23 0 108 46 108 59 0 4 11 20 25 35 20 21 33 26 74 26 27 0 53 -4 56 -10
8 -12 26 -13 22 -1 -1 5 10 22 24 38 24 28 25 32 14 61 -18 42 -42 53 -91 42
-63 -15 -155 -9 -250 15 -7 2 -9 19 -4 50 8 53 55 110 100 118 15 3 53 18 84
33 l58 27 -7 101 c-9 128 2 172 54 219 48 43 80 95 65 105 -30 19 -39 110 -19
185 5 17 1 42 -10 69 -31 79 1 189 72 243 l44 34 -33 4 -33 3 30 8 c33 8 81
43 72 52 -3 4 5 21 19 39 32 42 21 49 -56 41 -37 -4 -61 -3 -65 4 -4 6 4 10
19 10 14 0 27 4 30 9 3 4 23 11 45 15 52 8 61 24 21 39 -22 8 -30 17 -27 29 3
10 -1 22 -9 29 -22 18 -17 24 34 39 31 10 81 14 146 13 55 -2 104 1 110 6 23
18 208 40 205 24 -5 -30 3 -53 19 -53 10 0 27 -7 38 -16 10 -8 14 -13 7 -10
-6 4 -18 -1 -26 -9 -9 -8 -24 -15 -34 -16 -10 -1 0 -7 21 -13 30 -9 42 -19 47
-39 11 -41 -15 -46 -77 -15 -15 7 -37 7 -73 -1 -29 -6 -70 -11 -91 -11 -41 0
-90 -17 -90 -32 0 -4 9 -16 19 -25 11 -9 18 -20 15 -25 -3 -4 3 -11 13 -15 36
-14 41 -27 15 -40 -13 -7 -36 -13 -51 -14 -14 0 -35 -4 -46 -8 -17 -7 -15 -9
14 -16 24 -5 30 -10 20 -16 -9 -6 -10 -9 -2 -9 7 0 15 -17 18 -37 9 -52 20
-78 55 -121 29 -37 30 -39 27 -149 -1 -75 -6 -116 -15 -125 -7 -8 -50 -16
-100 -19 -48 -3 -113 -13 -145 -22 -32 -10 -70 -17 -85 -17 -15 0 -33 -4 -41
-9 -14 -9 -13 -14 13 -60 13 -21 14 -22 19 -5 3 14 5 13 6 -6 2 -48 161 -192
161 -147 0 7 19 13 43 15 23 2 55 4 70 6 30 4 106 -12 120 -24 4 -4 -3 -29
-17 -55 -15 -26 -26 -64 -26 -84 -1 -20 -7 -47 -15 -61 -8 -14 -14 -38 -15
-54 0 -15 -12 -50 -27 -77 -14 -27 -24 -50 -22 -52 81 -48 106 -55 179 -53 70
3 129 -12 114 -27 -4 -4 0 -17 9 -31 9 -13 13 -26 10 -30 -3 -3 -7 -22 -9 -43
-2 -21 -6 -49 -9 -63 -7 -32 -89 -120 -112 -120 -25 0 -68 30 -141 99 -64 59
-109 66 -153 22 -28 -29 -29 -31 -23 -113 7 -111 6 -141 -9 -150 -7 -4 -7 -8
-2 -8 6 0 2 -5 -8 -11 -9 -6 -15 -14 -12 -20 4 -5 1 -9 -4 -9 -6 0 -11 -3 -11
-7 0 -18 226 -6 318 16 106 26 144 23 185 -14 28 -27 34 -68 18 -125 -7 -26 6
-111 35 -217 11 -41 14 -77 10 -106 l-7 -45 -82 4 c-45 3 -98 9 -118 15 -32
10 -43 8 -102 -20 -35 -17 -71 -31 -80 -31 -8 0 -26 -9 -40 -20 -35 -28 -124
-33 -176 -9 -33 15 -41 24 -47 55 -4 20 -2 51 3 68 17 52 9 130 -15 161 -20
26 -25 27 -72 21 -28 -4 -57 -9 -65 -12 -24 -10 -57 -90 -50 -123 3 -17 2 -32
-4 -36 -6 -3 6 -22 29 -43 37 -36 38 -40 30 -77 -15 -65 -88 -115 -170 -115
-25 0 -25 0 6 -25 41 -32 68 -98 59 -145 -8 -43 -37 -75 -90 -102 -50 -25
-125 -96 -125 -119 0 -43 -90 -99 -159 -99 -53 0 4 -61 70 -75 22 -5 29 -13
34 -45 10 -58 25 -71 116 -100 80 -26 91 -34 103 -72 8 -26 52 -22 103 8 98
57 178 27 189 -72 16 -133 -121 -224 -217 -144 -36 29 -37 29 -54 10 -10 -11
-25 -20 -34 -20 -14 0 -14 -2 -1 -10 11 -7 11 -10 2 -10 -13 0 -56 -35 -58
-48 -8 -39 -19 -50 -65 -61 -27 -7 -79 -14 -115 -14 -60 -2 -68 1 -88 24 -20
23 -23 37 -21 96 0 39 7 76 14 84 25 29 81 121 81 135 0 7 -12 17 -27 20 -36
9 -86 34 -95 48 -4 6 -5 19 -2 28 7 23 -23 37 -64 31 -44 -7 -120 14 -159 43
-20 15 -37 40 -45 65 -6 23 -22 48 -35 56 -26 17 -30 38 -9 46 17 7 57 87 49
100 -14 22 67 140 118 172 31 20 39 31 39 54 0 39 -24 46 -50 14 -11 -14 -20
-30 -20 -35 0 -12 -39 -53 -45 -46 -3 2 -33 0 -67 -7 l-63 -11 -6 -74 c-3 -41
-9 -83 -13 -92 -14 -30 13 -190 35 -211 55 -52 60 -97 18 -179 -18 -35 -18
-38 -2 -35 10 1 19 -2 20 -8 2 -5 -7 -10 -19 -10 -29 -1 -35 -23 -6 -27 19 -2
23 -9 23 -38 0 -31 3 -35 38 -43 20 -5 37 -15 37 -23 0 -7 19 -26 43 -43 54
-36 115 -99 123 -125 4 -11 12 -26 19 -33 10 -9 12 -35 8 -93 -5 -64 -3 -80 8
-81 8 0 23 -3 34 -5 11 -2 52 -5 90 -7 76 -2 89 3 277 98 110 57 147 59 201
11 22 -21 40 -47 44 -67 3 -18 25 -69 49 -113 55 -106 70 -152 54 -171 -6 -8
-16 -45 -21 -82 -5 -37 -11 -79 -14 -93 -10 -49 4 -78 43 -91 20 -7 48 -20 62
-30 14 -10 43 -21 65 -25 22 -3 41 -7 43 -9 2 -1 3 -40 3 -85 0 -58 -4 -86
-13 -91 -8 -6 -14 -3 -16 6 -2 9 -7 13 -12 10 -4 -3 -6 -14 -3 -25 4 -14 0
-20 -11 -20 -9 0 -16 -3 -16 -7 0 -5 -11 -9 -25 -9 -14 -1 -25 3 -25 8 0 6 -7
8 -14 5 -10 -4 -17 2 -22 16 -20 68 -48 117 -65 117 -11 0 -19 -7 -19 -16 0
-8 -4 -13 -9 -10 -12 8 -63 -142 -62 -185 0 -20 10 -57 21 -83 28 -67 26 -104
-10 -148 -25 -31 -31 -49 -40 -128 -6 -51 -9 -107 -8 -125 1 -18 -4 -40 -10
-48 -7 -8 -9 -22 -6 -32 5 -12 9 -13 14 -5 11 18 23 -44 14 -72 -14 -45 -64
-58 -64 -17 0 12 -7 19 -19 19 -10 0 -31 10 -47 22 -15 13 -25 17 -20 10 15
-24 -12 -11 -43 20 -37 38 -38 44 -44 161 -3 50 -10 94 -18 103 -15 18 -54 11
-82 -14 -18 -16 -20 -15 -37 6 -10 12 -29 22 -44 22 -30 0 -32 -8 -11 -36 8
-10 15 -33 15 -50 0 -17 7 -37 14 -44 10 -8 12 -18 7 -33 -5 -12 -7 -39 -4
-59 2 -24 -4 -56 -18 -87 -11 -28 -18 -55 -14 -61 4 -6 -6 -13 -24 -16 -26 -6
-31 -11 -31 -36 0 -17 4 -27 10 -23 5 3 10 12 10 20 0 23 29 26 41 4 6 -13 16
-18 26 -15 9 4 26 -4 40 -18 21 -22 23 -28 12 -48 -7 -13 -17 -26 -23 -30 -8
-5 -7 -8 2 -8 6 0 12 -9 12 -19 0 -11 5 -23 10 -26 6 -4 17 -22 25 -41 8 -19
21 -41 29 -49 13 -14 36 -96 36 -131 0 -8 12 -27 26 -41 17 -17 27 -37 26 -55
0 -15 3 -28 8 -28 17 0 19 -30 3 -46 -16 -15 -16 -17 2 -31 11 -7 21 -10 23
-4 2 5 12 7 23 4 24 -7 20 -27 -7 -32 -28 -5 -74 -40 -74 -56 0 -8 -10 -21
-21 -29 -20 -13 -25 -13 -51 0 -15 8 -34 23 -41 34 -6 11 -17 20 -24 20 -18 0
-133 116 -133 134 0 9 -8 16 -17 16 -15 0 -16 -2 -3 -10 10 -6 11 -10 3 -10
-7 0 -13 -6 -13 -13 0 -42 -124 -81 -223 -71 -58 6 -66 4 -75 -13 -8 -14 -8
-23 0 -31 18 -18 13 -107 -8 -141 -11 -16 -43 -54 -71 -85 -29 -32 -53 -65
-53 -75 0 -29 45 -142 79 -196 21 -34 37 -81 50 -148 11 -53 30 -116 43 -140
22 -39 27 -42 65 -43 56 -1 69 -14 93 -91 22 -73 25 -120 9 -176 -11 -41 -53
-77 -70 -60 -6 6 -19 9 -29 6 -29 -8 -29 -72 -1 -161 22 -69 24 -93 23 -240
-1 -90 2 -182 8 -205 5 -23 10 -146 11 -273 2 -224 2 -233 -20 -270 -35 -59
-65 -254 -41 -269 21 -13 92 39 115 85 32 62 63 88 103 86 17 -2 78 -3 135 -4
l102 -2 66 -64 c43 -41 69 -75 74 -95 l7 -31 194 0 194 0 -6 28 c-4 15 -25 52
-47 82 -52 69 -92 183 -116 330 -30 183 -34 220 -22 220 6 0 8 6 5 14 -3 8 16
32 48 60 l53 46 0 86 c0 53 -4 87 -12 92 -6 4 -13 29 -14 56 -3 47 -2 50 46
92 32 27 54 39 59 33 6 -5 16 -9 24 -9 8 0 26 -9 41 -19 17 -12 32 -16 40 -11
8 4 27 4 42 0 16 -5 29 -6 29 -3 0 3 6 0 14 -6 12 -10 12 -16 0 -39 -12 -24
-12 -28 4 -40 27 -21 83 -7 115 28 23 26 28 40 27 83 0 29 3 85 6 125 8 92 -4
109 -40 56 -14 -21 -26 -44 -26 -50 0 -15 -61 -44 -93 -44 -26 0 -65 38 -92
90 -8 15 -19 83 -25 151 -6 68 -15 158 -20 199 -5 41 -9 110 -9 153 -1 50 -7
91 -17 112 -18 39 -84 103 -100 98 -11 -4 -17 8 -50 102 -10 28 -21 55 -25 60
-10 15 -55 152 -69 211 -6 28 -10 91 -9 140 1 64 -3 102 -15 134 -11 27 -21
97 -26 175 -5 71 -14 163 -21 204 -10 70 -9 77 13 125 23 50 36 68 96 134 17
20 32 41 32 46 0 16 41 55 54 50 15 -6 12 122 -5 191 -9 39 -9 50 1 53 7 3 20
12 29 21 15 15 34 19 54 11 4 -1 10 -3 15 -5 4 -1 20 -7 35 -13 16 -7 32 -12
36 -12 11 0 40 -122 36 -150 -3 -14 -6 -46 -8 -73 -4 -44 -2 -48 26 -62 42
-21 80 -19 135 9 26 13 65 29 87 36 65 20 99 72 79 123 -4 11 -16 14 -45 10
-25 -4 -39 -2 -39 6 0 14 -37 15 -45 1 -5 -8 -11 -8 -19 -1 -7 6 -16 8 -19 4
-4 -3 -7 21 -7 53 0 33 5 65 10 70 16 16 22 62 11 98 -12 45 11 194 37 243 11
21 54 73 96 117 52 54 76 86 76 103 0 13 5 44 11 68 13 53 0 169 -33 294 -24
88 -41 109 -91 113 -23 2 -25 6 -20 31 4 20 1 32 -13 41 -16 12 -17 18 -6 54
7 22 12 44 11 49 -5 30 3 42 33 45 27 2 37 11 55 43 12 22 22 44 22 49 1 4
-77 5 -171 1 -155 -6 -177 -4 -208 12 -44 23 -47 41 -20 107 31 78 52 86 236
99 l154 10 15 30 c8 16 12 33 10 38 -3 4 1 24 9 43 17 41 23 96 12 114 -4 7
-3 19 3 26 6 8 14 44 16 82 3 38 8 85 11 104 4 19 6 91 5 159 -1 109 1 127 17
145 11 12 22 30 25 41 18 62 49 142 64 164 10 15 18 28 19 31 0 3 8 21 17 40
32 70 93 120 145 120 22 0 72 -93 77 -140 5 -65 37 -133 82 -177 30 -29 33
-37 33 -91 l0 -60 54 -47 c65 -56 85 -95 80 -153 -5 -57 -9 -62 -44 -52 -35
10 -33 14 -31 -90 1 -41 -2 -94 -7 -117 -8 -33 -7 -45 5 -54 11 -10 11 -14 1
-20 -9 -6 -6 -9 10 -9 12 0 22 -5 22 -11 0 -8 22 -9 78 -3 42 4 92 7 110 7
l32 -2 0 1745 c0 1152 -3 1743 -10 1739 -5 -3 -17 -2 -26 3 -14 8 -12 10 10
16 21 5 27 12 24 29 -2 17 -12 23 -41 28 -42 7 -61 19 -31 20 16 0 15 3 -6 12
-61 29 -53 37 53 61 26 6 27 8 27 80 0 63 -2 73 -17 73 -118 0 -133 3 -134 26
0 12 -3 17 -5 11 -3 -6 -16 -9 -29 -6 -14 2 -23 8 -20 12 3 4 -3 10 -13 12
-11 3 -18 16 -20 34 -2 24 5 33 41 56 28 18 51 25 65 21 12 -3 47 -2 77 2 l55
6 0 1451 c0 1030 -3 1455 -11 1464 -7 9 -8 34 -4 71 4 32 8 155 8 273 l2 215
-78 1 c-77 2 -79 1 -96 -27 -11 -18 -20 -60 -24 -112 -4 -45 -18 -114 -31
-154 -26 -76 -24 -92 18 -188 19 -43 20 -265 2 -335 -8 -31 -11 -59 -6 -64 5
-5 6 -30 3 -56 -4 -37 0 -60 20 -106 30 -68 34 -90 23 -122 -5 -15 -3 -31 7
-45 19 -29 27 -126 18 -204 -4 -35 -4 -63 -1 -63 4 0 7 -6 8 -12 0 -7 3 -44 6
-83 2 -38 13 -86 23 -105 12 -25 18 -59 19 -117 1 -54 7 -94 18 -118 16 -34
16 -42 2 -113 -18 -87 -70 -173 -114 -190 -64 -24 -85 -22 -134 13 -41 30 -50
43 -68 101 -11 36 -20 82 -20 101 0 19 -10 71 -22 116 -20 73 -22 105 -21 282
1 110 7 229 13 265 22 117 23 132 12 184 -17 80 -31 176 -37 236 -2 30 -9 105
-15 165 -18 185 -16 217 10 253 27 36 24 67 -15 146 -22 46 -25 68 -30 206 -6
168 -17 276 -42 412 -14 81 -14 92 1 139 10 31 30 62 50 80 35 30 49 67 35 91
-4 8 -9 63 -10 122 -1 59 -6 121 -12 137 -8 21 -9 34 -1 47 15 23 39 22 39 -3
0 -16 6 -19 30 -17 72 8 92 5 123 -18 41 -30 80 -111 99 -208 16 -74 16 -79
-4 -133 l-20 -56 21 -44 c26 -53 56 -145 56 -169 0 -26 96 -121 115 -114 20 8
1 44 -23 44 -16 1 -16 2 1 14 10 8 27 12 37 9 20 -5 20 6 20 806 0 517 -4 811
-10 811 -13 0 -110 45 -155 72 -32 18 -35 23 -22 36 9 8 32 16 53 18 20 1 41
8 45 16 5 7 25 12 49 12 l40 -1 0 178 0 179 -1713 0 -1714 0 -9 -32 c-11 -37
4 -199 19 -209 5 -4 3 -10 -4 -15 -21 -13 -39 -13 -39 -1 0 8 -4 7 -12 -1 -16
-16 -45 -15 -51 1 -4 9 -6 9 -6 0 -1 -7 -8 -10 -16 -7 -10 4 -15 0 -15 -11 0
-9 -5 -13 -10 -10 -6 3 -10 1 -10 -6 0 -7 -8 -2 -19 9 -10 12 -21 19 -24 16
-3 -4 -14 2 -24 12 -18 18 -22 48 -23 197 l0 57 -109 0 -108 0 -12 -60 c-10
-50 -9 -64 4 -90 17 -33 46 -55 85 -65 35 -8 51 -36 41 -72 -13 -48 -4 -60 47
-67 118 -17 145 -18 185 -8 23 6 57 14 76 18 22 4 35 13 39 26 4 15 7 17 13 6
6 -10 9 -8 9 7 0 17 2 17 10 5 6 -10 10 -11 10 -3 0 25 163 85 189 69 16 -10
23 -83 11 -107 -7 -12 -12 -62 -13 -111 0 -71 -3 -91 -16 -98 -9 -5 -12 -10
-6 -10 23 0 -38 -31 -91 -45 -31 -8 -59 -16 -61 -19 -6 -6 139 1 190 9 28 5
47 4 47 -2 0 -19 42 -53 79 -63 l39 -10 -5 -48 c-4 -46 -48 -186 -65 -208 -4
-6 -17 -42 -27 -80 -10 -38 -37 -121 -60 -184 -24 -63 -50 -135 -59 -160 -8
-25 -25 -60 -36 -79 l-20 -34 23 -43 c25 -47 44 -60 60 -40 6 7 50 26 98 41
49 15 96 32 105 36 10 5 29 9 43 9 14 0 25 4 25 9 0 5 12 11 28 13 25 3 27 6
26 43 -1 22 -6 67 -13 100 -14 78 -14 164 1 237 9 42 9 64 2 76 -6 9 -8 26 -4
37 6 15 -1 28 -26 51 -35 33 -43 64 -21 82 24 20 133 50 176 48 42 -2 78 -27
65 -47 -3 -5 4 -9 16 -9 12 0 18 -5 15 -10 -12 -19 24 -22 60 -4 46 21 59 42
80 124 25 97 76 143 166 153 70 7 96 -1 120 -40 16 -25 19 -42 15 -69 -4 -19
-3 -33 1 -32 5 2 19 -7 33 -19 24 -24 74 -31 85 -13 11 18 20 10 22 -19 2 -21
19 -47 63 -91 61 -62 62 -62 83 -43 12 10 31 18 42 18 51 0 93 138 61 200 -9
17 -16 38 -16 47 0 20 -30 31 -63 23 -33 -9 -75 14 -112 61 -51 63 -53 92 -10
190 33 75 63 94 147 94 67 0 68 1 62 23 -6 28 21 42 101 51 53 6 71 0 69 -24
-1 -8 -2 -23 -3 -32 0 -10 -6 -18 -13 -18 -6 0 -20 -7 -30 -17 -15 -14 -24
-14 -58 -4 -43 13 -57 12 -51 -4 12 -29 18 -121 11 -141 -13 -32 -2 -55 24
-53 43 3 52 -2 76 -41 14 -22 28 -40 31 -40 4 0 12 -23 19 -50 8 -33 19 -54
34 -62 11 -6 27 -20 35 -31 8 -11 33 -41 56 -67 24 -27 55 -74 70 -105 23 -49
26 -66 21 -109 -7 -51 -6 -52 31 -80 36 -27 38 -32 38 -82 -1 -30 -6 -59 -13
-66 -14 -14 -16 -48 -3 -48 4 0 6 -11 3 -25 -7 -38 -133 -135 -175 -135 -7 0
-29 -11 -49 -25 -42 -28 -59 -25 -79 13 -7 15 -20 35 -27 44 -8 10 -12 27 -9
39 3 12 1 32 -5 43 -12 21 -49 121 -68 182 -6 18 -17 37 -25 44 -8 7 -15 20
-15 30 0 24 -42 51 -55 36 -26 -31 -55 -105 -55 -142 0 -69 -19 -147 -46 -188
-22 -33 -24 -40 -11 -47 9 -6 13 -21 11 -46 -3 -47 32 -220 51 -249 11 -17 27
-23 82 -28 37 -3 87 -9 111 -12 27 -4 42 -2 42 5 0 6 6 11 14 11 8 0 16 7 20
15 6 16 33 19 61 9 18 -7 58 -90 50 -104 -3 -4 5 -19 16 -34 17 -22 29 -26 69
-26 26 0 64 7 85 16 40 16 107 13 113 -5 2 -6 10 -11 17 -11 15 0 31 -62 20
-79 -14 -24 -35 -125 -29 -143 5 -16 12 -18 42 -13 52 9 102 -17 102 -53 0
-15 2 -40 4 -57 5 -44 -8 -70 -46 -89 -39 -20 -65 -35 -97 -58 -13 -10 -35
-18 -48 -18 -14 0 -22 -4 -18 -10 4 -6 2 -16 -3 -23 -24 -29 -14 -117 14 -117
8 0 13 -4 10 -9 -14 -23 112 -33 138 -11 10 7 20 5 39 -10 14 -11 36 -20 49
-20 26 -1 52 -18 56 -39 1 -7 16 -26 31 -42 23 -22 32 -45 42 -100 11 -63 11
-76 -5 -118 -29 -73 -30 -81 -13 -81 8 0 21 -14 28 -32 7 -17 28 -52 47 -76
30 -40 34 -51 30 -91 -5 -52 -53 -188 -74 -210 -11 -13 -17 -13 -39 -1 -17 9
-31 10 -47 3 -23 -10 -79 4 -100 25 -26 26 -123 8 -146 -26 -14 -21 -13 -23
21 -37 63 -26 102 -69 122 -132 10 -32 23 -65 30 -73 7 -8 16 -25 19 -37 4
-13 12 -23 17 -23 5 0 9 -7 9 -15 0 -8 4 -15 9 -15 12 0 20 -23 35 -105 15
-76 11 -134 -9 -150 -31 -25 -63 -114 -44 -125 5 -4 13 -32 16 -63 6 -55 16
-71 26 -44 4 7 6 6 6 -5 1 -9 -13 -28 -29 -41 -16 -14 -30 -33 -30 -41 0 -9
-4 -16 -8 -16 -4 0 -7 -29 -7 -64 0 -56 3 -67 28 -91 15 -15 27 -32 27 -38 0
-5 15 -25 33 -42 17 -18 33 -39 35 -46 5 -21 33 -49 49 -49 7 0 13 -4 13 -10
0 -5 9 -10 20 -10 25 0 26 -17 3 -23 -17 -4 -17 -4 1 -12 11 -5 21 -3 26 4 9
16 52 11 58 -6 2 -9 -10 -13 -41 -13 -36 0 -46 -4 -50 -20 -4 -15 1 -22 19
-26 13 -3 24 -9 24 -13 0 -4 13 -22 30 -41 16 -18 27 -37 24 -41 -3 -5 0 -9 5
-9 13 0 10 -22 -4 -32 -7 -5 -7 -8 0 -8 16 0 16 -76 0 -137 -10 -38 -12 -60
-5 -68 6 -7 8 -19 4 -28 -3 -8 -1 -18 5 -22 20 -12 11 -40 -22 -75 -36 -38
-51 -66 -41 -81 3 -6 7 -35 9 -65 2 -30 8 -60 13 -67 12 -14 19 -93 10 -102
-3 -4 -2 -21 3 -38 14 -51 11 -77 -9 -77 -26 0 -58 -25 -43 -34 14 -9 0 -38
-35 -73 -14 -14 -22 -28 -19 -33 11 -17 -40 -40 -90 -40 -36 0 -46 3 -35 10
10 7 11 10 2 10 -8 0 -12 15 -10 45 0 25 4 45 8 45 3 0 12 16 20 35 8 21 21
35 34 37 15 2 22 12 24 31 2 17 9 27 20 28 9 0 3 6 -14 12 -21 8 -30 18 -28
30 1 11 -4 17 -17 17 -12 0 -16 5 -13 15 4 10 -3 18 -22 25 -27 10 -54 48 -54
76 0 7 -7 25 -14 41 -34 64 -76 166 -76 182 0 9 -12 41 -26 71 -14 30 -28 76
-31 103 -6 46 -15 55 -55 48 -13 -2 -9 17 5 22 9 4 9 8 -2 15 -12 8 -12 14 -3
25 7 7 9 17 5 21 -13 13 -12 39 3 68 19 37 5 58 -40 58 l-31 1 23 18 c23 20
31 71 11 71 -6 0 -9 9 -6 20 3 10 1 20 -5 22 -5 2 0 14 11 27 12 13 21 32 21
41 0 9 12 49 26 90 15 40 27 95 28 122 l1 50 -50 15 c-86 25 -85 24 -71 99 7
35 6 36 -41 56 -56 23 -107 94 -118 162 -4 23 -11 46 -16 52 -5 6 -13 31 -18
55 -5 24 -16 68 -25 98 -8 30 -16 76 -17 103 -2 26 -6 48 -11 48 -14 0 -68
126 -71 166 -2 35 0 38 33 48 19 5 37 12 40 15 3 4 22 15 43 26 21 11 48 30
59 42 l21 23 -29 64 c-18 41 -36 67 -49 70 -40 11 -96 5 -132 -14 -46 -24 -55
-25 -82 -2 -26 21 -17 37 29 50 l35 10 -45 1 c-36 1 -52 7 -78 32 -38 35 -49
61 -63 139 -6 30 -21 71 -34 91 -13 20 -26 50 -28 67 -9 54 -90 394 -103 427
-4 11 -11 22 -15 25 -3 3 -9 37 -12 76 -4 39 -11 83 -17 98 -5 15 -10 51 -10
80 0 29 -7 75 -15 102 -15 49 -71 124 -94 124 -8 0 -7 9 4 30 19 36 19 62 1
142 -8 35 -17 96 -19 136 -4 54 -10 77 -23 86 -15 12 -15 15 -1 42 46 83 45
104 -3 104 -31 0 -35 9 -21 44 4 11 2 42 -5 70 -14 60 -32 107 -33 86 -1 -11
-4 -11 -13 -2 -10 10 -7 16 10 28 12 8 22 22 22 30 0 8 6 25 14 37 7 12 13 42
12 67 -1 44 -1 45 -33 42 -28 -3 -31 -1 -26 19 6 21 4 21 -43 14 -47 -7 -113
-34 -85 -35 7 0 11 -6 8 -14 -7 -18 56 -142 90 -178 26 -27 26 -28 5 -28 -11
0 -24 -5 -27 -10 -4 -6 -11 -8 -16 -5 -5 4 -9 3 -9 -2 0 -11 -49 -33 -73 -33
-23 0 -46 -27 -47 -52 0 -18 10 -32 63 -91 15 -18 27 -34 27 -38 0 -7 36 -19
54 -18 5 1 12 -4 16 -10 3 -6 17 -14 31 -16 13 -3 25 -9 27 -15 2 -5 10 -10
18 -10 18 0 18 -5 0 -33 -8 -12 -17 -40 -21 -61 -5 -28 -21 -54 -60 -95 -39
-42 -55 -66 -60 -96 -19 -112 -49 -155 -109 -155 -36 0 -69 46 -80 111 -10 62
-15 69 -55 69 -20 0 -42 -4 -49 -8 -16 -11 -52 -77 -52 -96 0 -21 -21 -31 -31
-15 -7 12 -12 12 -29 1 -29 -18 -42 -6 -39 36 6 89 -3 108 -35 76 -11 -11 -30
-15 -59 -13 -25 2 -62 -4 -91 -16 -41 -16 -54 -17 -92 -7 -66 18 -95 15 -101
-8 -3 -11 -8 -20 -12 -20 -4 0 -30 -22 -58 -50 -50 -49 -73 -61 -73 -39 0 6
-6 9 -14 6 -11 -5 -14 6 -13 55 l2 61 -55 18 c-30 10 -47 18 -36 18 15 1 17 6
12 29 -4 15 -10 41 -13 57 -3 17 -17 43 -30 59 -38 46 -100 174 -116 241 -1 6
-6 15 -9 21 -9 13 -11 102 -3 134 5 18 0 33 -18 54 -26 30 -26 34 -7 130 10
47 84 158 159 239 16 18 26 40 27 60 0 18 4 42 8 53 8 25 -13 34 -79 34 -32 0
-42 5 -50 23 -7 15 -18 22 -35 21 -31 -2 -172 -29 -225 -44 -22 -7 -55 -14
-72 -17 -36 -6 -45 -23 -13 -23 21 0 29 -30 8 -30 -7 0 -5 -5 5 -11 11 -7 16
-17 12 -29 -3 -10 -1 -21 5 -25 6 -3 7 -12 3 -18 -3 -7 3 -4 14 6 11 9 24 17
29 17 5 0 2 -5 -6 -10 -12 -8 -12 -10 5 -11 l20 0 -20 -9 c-19 -8 -19 -9 3 -9
12 -1 22 -5 22 -11 0 -5 -10 -11 -22 -11 -21 -1 -21 -2 -3 -6 31 -8 36 -16 40
-73 2 -29 9 -56 15 -60 9 -5 9 -9 1 -14 -6 -4 -11 -23 -11 -42 0 -21 -4 -33
-10 -29 -5 3 -10 1 -10 -5 0 -10 -53 -73 -106 -124 -32 -32 -45 -63 -43 -104
3 -50 -9 -82 -29 -82 -15 0 -15 2 -2 10 9 6 10 10 3 10 -15 0 -32 -31 -26 -48
3 -7 -3 -20 -13 -27 -11 -8 -15 -15 -11 -15 16 0 -61 -67 -85 -73 -19 -5 -35
0 -64 24 -48 38 -72 34 -99 -15 -29 -52 -48 -60 -130 -58 -94 3 -98 4 -135 32
-69 54 -73 69 -41 155 19 51 18 70 -6 93 -12 12 -19 11 -48 -9 -19 -13 -35
-27 -35 -31 0 -5 -4 -8 -10 -8 -5 0 -20 -9 -33 -20 -19 -17 -24 -32 -26 -82
-2 -68 -23 -115 -72 -166 -28 -29 -32 -43 -41 -115 -13 -121 2 -137 123 -137
27 0 50 -3 50 -7 1 -5 3 -18 4 -30 1 -12 23 -42 49 -66 49 -48 54 -66 36 -141
-7 -34 -5 -49 16 -93 22 -48 23 -58 13 -99 -7 -25 -20 -49 -30 -55 -25 -13
-24 -36 2 -44 23 -7 35 -32 44 -88 3 -21 10 -35 15 -32 5 3 11 1 15 -5 3 -5 1
-10 -4 -10 -6 0 -11 -9 -11 -20 0 -12 -10 -24 -24 -29 -15 -6 -25 -20 -29 -40
-8 -37 -76 -149 -96 -156 -8 -3 -25 5 -38 20 -13 14 -32 25 -42 25 -23 0 -80
71 -88 111 -5 24 -2 35 12 45 29 21 11 41 -44 49 -27 4 -55 13 -62 21 -12 15
-8 18 41 27 41 8 63 15 93 26 16 6 42 11 58 11 45 0 105 22 119 43 11 19 9 19
-46 14 -33 -3 -63 -2 -69 3 -5 4 -34 14 -63 23 -48 14 -54 13 -75 -2 -50 -39
-117 -72 -148 -73 -81 -3 -153 72 -138 142 4 19 6 63 5 97 -3 56 -1 64 20 78
32 21 64 56 64 71 0 17 61 114 71 114 5 0 9 -8 9 -17 0 -29 13 -5 16 31 2 20
-1 38 -7 41 -5 4 -9 16 -9 29 0 60 -97 82 -148 33 -22 -20 -34 -24 -62 -20
-19 3 -37 9 -40 13 -3 5 -16 10 -30 11 -16 3 -35 19 -55 49 -16 25 -28 48 -27
53 1 4 -5 7 -14 7 -8 0 -12 5 -9 10 3 6 1 10 -4 10 -7 0 -7 7 1 21 12 18 9 24
-26 55 -45 39 -41 48 19 62 44 10 69 4 71 -15 1 -7 2 -23 3 -36 1 -23 53 -57
87 -57 54 0 107 64 143 171 13 40 33 77 52 95 17 16 42 51 55 79 51 100 121
193 239 313 66 68 135 132 152 144 18 11 33 26 33 35 0 18 -43 14 -214 -19
-61 -11 -130 -18 -160 -16 -34 3 -56 0 -64 -8 -6 -7 -39 -20 -72 -30 -47 -13
-60 -21 -60 -36 0 -11 4 -16 11 -12 6 3 4 -7 -5 -24 -9 -17 -21 -32 -28 -35
-7 -3 11 -6 40 -6 39 -1 52 -5 53 -16 3 -32 4 -36 17 -44 31 -19 -4 -93 -48
-102 -23 -5 -70 10 -70 21 0 6 -11 15 -25 20 -14 5 -25 16 -25 24 0 7 -11 21
-25 30 -22 15 -25 15 -34 -2 -6 -9 -11 -13 -11 -8 0 5 -9 -1 -19 -13 -17 -20
-20 -20 -35 -6 -19 19 -20 27 -4 43 16 16 -30 32 -92 32 -42 0 -52 -4 -66 -25
-9 -14 -19 -24 -21 -21 -3 2 -20 -2 -38 -10 -35 -14 -109 -20 -89 -6 6 4 13
14 16 23 4 9 23 19 42 23 21 4 36 13 36 21 0 16 36 39 49 31 5 -3 14 1 21 9 9
11 9 15 1 15 -7 0 -9 5 -5 11 5 8 -2 10 -22 6 -16 -3 -58 -10 -94 -17 -132
-24 -125 -19 -124 -75 1 -54 -13 -74 -53 -75 -13 0 -23 -4 -23 -8 0 -5 -12
-15 -27 -22 -43 -21 -82 -61 -76 -76 4 -11 -2 -13 -28 -8 -19 4 -41 13 -50 20
-8 8 -21 14 -27 14 -7 0 -12 5 -12 10 0 6 -8 11 -17 11 -10 1 -4 5 12 10 23 6
18 7 -20 3 -27 -2 -86 -6 -129 -9 -48 -3 -83 -10 -88 -18 -14 -21 -9 -45 11
-52 24 -7 33 -39 20 -73 -5 -14 -8 -31 -5 -39 3 -7 -6 -24 -19 -37 -14 -14
-25 -29 -25 -34 0 -5 -9 -12 -21 -15 -12 -3 -18 -10 -14 -16 3 -6 -1 -11 -9
-11 -9 0 -16 -7 -16 -15 0 -18 -36 -38 -52 -29 -8 5 -9 2 -5 -9 3 -9 3 -16 -1
-16 -4 1 -14 1 -22 0 -13 -1 -13 -2 0 -11 10 -6 11 -10 3 -10 -7 0 -13 -4 -13
-9 0 -26 -48 -81 -80 -92 -65 -23 -191 -8 -226 26 -47 46 -40 174 13 237 13
14 12 17 -3 26 -11 6 -13 11 -5 16 6 4 11 3 11 -2 0 -4 19 -6 43 -3 l42 6 -3
50 c-2 28 -7 54 -12 59 -14 14 -183 -13 -202 -32 -9 -9 -9 -12 0 -12 7 0 20
-7 30 -15 9 -9 31 -26 47 -39 l30 -24 -24 -25 c-12 -14 -20 -30 -17 -36 4 -5
2 -12 -4 -16 -6 -4 -8 -10 -5 -15 9 -15 -20 -28 -60 -28 -40 0 -74 12 -86 31
-9 13 -42 0 -34 -12 7 -13 -30 -33 -53 -29 -17 3 -42 29 -56 58 -33 69 -54 95
-79 98 -15 2 -27 -1 -27 -7 0 -5 -12 -11 -27 -13 -16 -2 -28 -8 -28 -15 0 -13
-72 -93 -84 -93 -4 0 -14 -12 -22 -27 -8 -16 -20 -34 -27 -42 -7 -8 -20 -24
-29 -37 -8 -13 -24 -24 -34 -24 -17 0 -59 -60 -42 -60 5 0 1 -5 -7 -10 -24
-16 38 -12 85 5 34 12 36 14 15 16 -22 1 -20 2 8 9 18 4 41 14 50 23 9 8 32
18 51 22 18 4 49 18 68 31 20 13 44 24 54 24 10 0 20 4 23 9 10 15 39 6 42
-13 1 -9 9 -27 16 -39 8 -12 14 -29 13 -37 0 -8 11 -18 25 -21 23 -6 22 -7 -8
-8 -17 0 -31 -4 -31 -8 4 -22 -3 -33 -20 -33 -13 0 -20 -9 -24 -27 -11 -59
-16 -72 -38 -94 -26 -26 -68 -50 -151 -84 l-58 -24 0 25 c0 13 -5 24 -11 24
-5 0 -7 -4 -4 -10 11 -18 -4 -11 -25 12 -11 12 -20 33 -20 47 0 29 -16 89 -29
109 -4 7 -23 15 -42 18 -19 2 -46 6 -61 9 -29 5 -32 -1 -30 -52 2 -36 -13 -27
-41 26 -29 52 -66 71 -89 44 -9 -12 -15 -9 -31 16 -21 35 -37 32 -37 -5 0 -15
-6 -24 -15 -24 -10 0 -15 11 -15 35 0 19 5 35 10 35 6 0 10 5 10 10 0 6 -6 10
-14 10 -19 0 -46 -71 -46 -120 0 -40 -5 -46 -26 -32 -23 15 -47 81 -25 68 5
-3 11 0 14 8 4 10 0 12 -13 9 -16 -4 -21 3 -31 41 -9 35 -18 49 -41 60 -25 13
-30 13 -35 0 -3 -7 -2 -21 1 -30 6 -15 4 -15 -10 -3 -16 13 -17 11 -11 -18 4
-21 3 -33 -5 -33 -20 0 -92 73 -94 97 -2 19 2 23 27 23 16 0 32 0 36 -1 10 -1
21 24 28 61 7 42 12 50 32 50 9 0 14 3 10 6 -3 4 -1 12 6 19 7 7 19 22 27 34
8 11 20 21 26 21 6 0 14 9 17 20 5 18 14 20 84 21 53 0 72 3 58 9 -11 5 -14 9
-7 9 27 2 -1 21 -30 21 -25 0 -29 3 -25 20 4 17 0 20 -26 20 -24 0 -28 -3 -17
-10 11 -7 2 -9 -30 -9 -25 1 -37 3 -27 6 9 2 17 9 17 14 0 5 20 9 44 9 26 0
46 5 49 13 3 7 6 5 6 -5 1 -21 21 -24 39 -6 7 7 29 11 49 10 32 -3 35 -1 23
13 -11 13 -9 15 11 16 l24 1 -25 8 c-22 7 -21 8 12 9 20 1 40 6 43 11 11 17
83 50 109 50 45 0 126 -21 120 -32 -7 -12 111 -5 171 9 60 15 144 61 175 97
15 17 42 46 59 64 30 31 31 33 16 61 -8 16 -20 31 -27 33 -9 3 -13 23 -12 61
1 46 7 63 30 91 28 34 54 46 54 26 0 -5 8 -10 18 -10 9 0 23 -9 30 -20 9 -15
19 -19 37 -14 34 8 75 -3 75 -21 0 -8 4 -15 8 -15 12 0 32 -47 27 -62 -5 -13
31 -53 104 -117 18 -16 30 -34 27 -40 -7 -10 7 -16 28 -12 5 1 84 2 177 2 105
-1 169 3 169 9 0 6 34 10 80 10 44 0 80 3 80 8 0 11 51 32 77 32 13 0 23 3 23
8 0 4 16 8 34 9 21 2 46 13 63 29 40 37 70 50 131 57 l52 6 0 -29 c0 -24 5
-31 27 -36 14 -4 40 -2 58 5 17 6 48 11 68 11 20 0 37 4 37 9 0 5 11 12 24 15
14 3 42 24 64 46 29 30 47 40 71 40 18 0 41 5 52 11 12 6 57 13 101 15 76 5
104 0 163 -27 11 -5 49 -11 85 -13 80 -5 78 -4 60 -16 -12 -8 -11 -10 8 -10
12 0 22 6 22 14 0 18 38 31 130 46 41 6 91 16 111 21 20 5 53 9 73 9 20 0 36
5 36 10 0 6 11 10 23 10 35 0 85 28 104 58 10 15 29 39 43 53 27 27 38 59 20
59 -6 0 -9 3 -7 8 3 4 -29 17 -71 30 -43 13 -90 28 -106 34 -43 17 -176 107
-183 124 -15 39 58 108 111 108 17 -1 51 -10 76 -22 114 -53 170 -66 170 -39
0 7 3 8 8 2 14 -20 40 -15 57 11 15 23 45 119 45 144 0 6 -102 10 -260 10
-241 0 -260 -1 -260 -17 -1 -42 -83 -154 -131 -182 -96 -55 -186 13 -213 162
l-7 37 -113 0 c-92 0 -115 -3 -120 -15 -3 -8 -12 -15 -21 -15 -21 0 -34 -39
-23 -71 8 -24 12 -25 62 -21 81 7 116 -16 187 -119 42 -60 52 -156 24 -223
-21 -51 -38 -60 -81 -46 -41 14 -114 7 -169 -15 -35 -15 -35 -15 -46 12 -6 17
-9 82 -7 162 l3 134 -30 18 c-71 43 -88 50 -106 46 -13 -4 -19 0 -19 13 0 24
-20 38 -47 34 -12 -2 -25 1 -28 6 -3 6 -13 10 -22 10 -16 0 -63 44 -63 59 0 9
-152 31 -212 31 -27 0 -37 -5 -41 -20 -3 -12 -14 -20 -26 -20 -12 0 -21 -4
-21 -10 0 -5 -10 -18 -22 -30 -20 -18 -24 -19 -44 -5 -13 8 -31 15 -41 15 -24
0 -56 37 -49 56 5 12 -32 14 -229 14 -202 0 -235 -2 -235 -15 0 -8 -4 -15 -10
-15 -5 0 -10 -11 -10 -25 0 -19 5 -25 22 -25 16 0 19 -3 11 -11 -18 -18 -63
-2 -63 22 0 25 -20 47 -38 41 -6 -2 -15 3 -18 12 -5 14 -44 16 -338 16 -275
-1 -334 -3 -350 -15 -15 -11 -16 -15 -5 -16 8 0 6 -4 -6 -9 l-20 -9 20 0 c17
-1 17 -3 5 -11 -12 -8 -11 -10 8 -10 37 0 19 -36 -30 -57 -16 -7 -28 -17 -28
-23 0 -6 6 -8 13 -4 6 3 -1 -6 -18 -20 -34 -31 -73 -49 -90 -42 -6 2 -17 22
-23 44 -7 22 -19 43 -27 46 -14 5 -13 11 5 46 11 22 26 40 33 40 8 0 8 3 -2 9
-10 7 -2 12 30 19 31 7 -88 10 -413 11 l-457 1 4 -79 c3 -43 9 -90 14 -104 13
-34 17 -156 5 -166 -12 -10 -199 -91 -211 -91 -13 0 -93 -39 -125 -61 -28 -21
-87 -25 -134 -10 -16 5 -46 12 -66 16 -40 6 -57 20 -123 100 -21 26 -41 42
-43 36 -2 -6 -10 -11 -18 -11 -8 0 -14 -3 -15 -7 -11 -100 4 -270 26 -292 8
-8 35 -16 60 -17 25 -2 70 -14 98 -28 29 -14 75 -30 102 -37 27 -7 58 -22 70
-34 11 -12 30 -27 43 -34 12 -7 20 -16 17 -22 -4 -5 1 -9 9 -9 9 0 16 -7 16
-15 0 -8 -6 -15 -12 -15 -9 0 -8 -4 2 -10 13 -8 12 -10 -2 -10 -10 0 -18 -4
-18 -10 0 -5 4 -10 9 -10 5 0 12 -8 15 -18 3 -9 26 -28 50 -42 40 -21 48 -23
85 -12 22 7 44 18 48 25 4 6 6 41 4 77 -3 76 22 148 60 168 44 23 119 41 125
30 4 -6 19 -7 35 -4 16 3 29 2 30 -2 0 -4 2 -14 4 -22 11 -44 25 -139 25 -169
0 -21 10 -47 26 -68 23 -30 25 -40 19 -80 -9 -60 11 -79 85 -82 29 -1 55 -3
57 -4 1 -2 -6 -13 -17 -25 -11 -12 -20 -26 -20 -31 0 -5 -10 -13 -21 -16 -15
-5 -18 -9 -9 -15 7 -4 8 -10 4 -12 -14 -8 -204 -6 -204 2 0 11 -81 11 -119 -1
-108 -35 -121 -46 -101 -84 10 -18 22 -25 42 -25 24 0 27 -2 16 -14 -9 -10
-15 -11 -20 -2 -6 8 -8 8 -8 -1 0 -7 -5 -13 -11 -13 -14 0 -41 -28 -32 -33 5
-2 15 -3 23 -2 8 1 23 3 33 3 11 1 15 7 11 13 -3 6 5 3 20 -6 14 -10 26 -26
26 -37 0 -16 3 -18 14 -9 11 9 15 8 20 -4 5 -13 -1 -15 -34 -12 -22 2 -37 0
-35 -4 3 -4 -8 -10 -25 -14 -19 -4 -28 -11 -24 -18 4 -7 -3 -1 -16 11 -19 20
-28 23 -59 16 -20 -5 -67 -8 -106 -9 -38 0 -76 -4 -83 -9 -8 -4 -27 -1 -48 9
-34 16 -74 13 -74 -6 0 -5 -27 -8 -60 -8 -53 1 -65 -2 -112 -35 -29 -20 -59
-36 -65 -36 -18 0 -27 48 -13 65 7 8 9 23 5 36 -11 34 -12 78 -2 82 5 1 1 12
-10 25 -13 16 -31 22 -65 24 -41 1 -51 -3 -90 -37 -24 -21 -47 -45 -51 -53
-10 -16 -52 -9 -77 13 -37 32 -101 55 -155 55 -30 0 -55 5 -55 10 0 6 11 10
24 10 14 0 27 4 31 10 3 5 37 19 75 31 69 22 69 22 162 5 143 -28 154 -29 146
-21 -4 4 15 19 42 32 54 27 88 62 95 100 3 12 7 34 10 48 3 14 18 31 35 40 16
8 40 26 54 39 13 14 27 22 32 18 4 -4 4 -1 0 6 -4 7 -11 10 -16 7 -5 -3 -11
-1 -15 4 -3 6 -27 13 -52 17 -26 4 -65 15 -88 25 -51 23 -212 25 -302 4 -69
-16 -105 -9 -122 24 -15 28 -14 53 6 91 20 42 33 164 21 208 -13 49 -42 58
-136 44 -46 -7 -88 -21 -105 -33 -55 -40 -119 -61 -168 -55 -46 6 -47 6 -53
-25 -3 -18 -9 -29 -13 -26 -3 4 -13 1 -22 -7 -30 -26 -92 -29 -136 -6 -27 14
-59 20 -101 20 l-61 0 -7 80 c-13 152 -26 179 -100 190 -62 9 -84 -8 -92 -73
-6 -43 -3 -53 31 -108 32 -52 37 -67 33 -104 -8 -66 -38 -101 -99 -114 -27 -6
-68 -11 -90 -11 -31 0 -47 -7 -74 -32 -30 -28 -37 -43 -46 -97 -6 -42 -19 -75
-37 -98 -32 -43 -38 -76 -17 -105 8 -13 15 -43 15 -70 0 -79 54 -114 115 -74
48 31 60 114 26 177 -29 55 -32 109 -4 109 9 0 36 11 59 25 24 14 65 28 91 31
26 3 60 10 74 16 43 15 89 77 89 117 0 11 7 27 16 35 8 9 12 20 9 26 -3 5 -1
18 4 27 9 16 11 15 12 -7 1 -16 3 -19 6 -8 3 14 9 15 34 6 17 -6 33 -8 36 -4
13 13 41 -37 47 -83 3 -27 18 -65 32 -86 l25 -37 -30 -62 c-19 -38 -35 -92
-42 -141 -13 -99 -12 -100 133 -96 102 3 110 1 173 -28 36 -17 77 -31 93 -32
24 0 20 -4 -25 -27 -49 -24 -70 -52 -40 -52 6 0 31 -20 55 -44 48 -50 52 -77
22 -128 -25 -42 -99 -71 -188 -74 -59 -1 -65 1 -104 35 -37 34 -41 42 -40 82
0 24 2 53 4 64 2 15 -7 25 -34 38 -33 16 -44 17 -118 5 -108 -17 -116 -31 -55
-92 24 -25 54 -64 66 -87 11 -23 29 -51 40 -62 10 -12 19 -24 19 -28 0 -4 37
-22 83 -40 93 -37 169 -79 174 -96 5 -14 -27 -20 -132 -28 -108 -9 -225 -61
-225 -102 0 -7 13 -32 30 -55 24 -33 30 -51 30 -92 0 -61 29 -128 63 -151 28
-18 45 -13 95 26 17 13 33 16 55 12 53 -9 60 -23 49 -84 -6 -30 -10 -72 -10
-94 1 -68 -6 -79 -65 -93 -29 -6 -64 -12 -79 -12 -31 0 -60 -39 -54 -72 3 -13
5 -28 5 -34 1 -6 19 -19 40 -29 54 -24 78 -52 89 -103 6 -23 26 -62 46 -87 41
-49 66 -102 66 -138 0 -13 11 -44 24 -69 16 -31 26 -70 31 -126 8 -96 36 -148
107 -197 54 -39 76 -82 84 -171 l7 -70 -80 -72 c-46 -41 -88 -90 -101 -116
-35 -68 -85 -76 -148 -23 -21 19 -54 39 -73 45 -72 25 -98 11 -119 -65 -7 -22
-26 -56 -42 -73 -17 -18 -30 -36 -30 -40 0 -27 268 -57 351 -39 80 17 111 10
132 -33 15 -31 16 -40 5 -57 -10 -17 -20 -20 -51 -17 -21 2 -52 0 -68 -6 -25
-9 -29 -15 -29 -48 0 -22 -4 -41 -10 -45 -5 -3 -19 -33 -31 -65 -25 -68 -40
-75 -88 -35 -41 35 -33 68 33 138 14 15 26 32 26 36 0 9 -68 31 -96 31 -41 0
-64 -28 -64 -78 0 -53 -4 -60 -43 -85 -22 -14 -27 -25 -27 -58 0 -49 34 -116
64 -126 12 -3 44 -8 71 -9 120 -7 213 -20 229 -33 10 -8 48 -15 99 -17 45 -2
93 -6 106 -8 31 -7 87 17 101 43 8 16 7 32 -6 69 -23 67 -12 146 25 193 23 28
27 39 19 54 -36 64 -22 127 27 117 l26 -5 -7 164 c-7 169 -4 198 42 379 8 30
14 104 14 165 0 108 1 113 32 159 32 49 58 77 141 155 26 24 72 83 103 132 52
82 70 99 148 146 15 9 45 11 99 6 58 -4 81 -3 87 6 11 19 126 41 141 27 8 -8
13 -8 16 2 5 12 65 42 84 42 5 0 9 -7 9 -15 0 -8 7 -15 15 -15 8 0 15 -4 15
-10 0 -12 37 -13 44 -1 6 9 63 24 139 36 21 3 47 16 58 29 19 22 23 23 78 11
68 -14 82 -21 75 -39 -3 -7 6 -32 20 -56 14 -24 22 -48 20 -52 -3 -5 -3 -31 1
-58 5 -35 16 -60 42 -89 19 -23 40 -41 46 -40 8 0 8 2 0 6 -7 2 -13 15 -13 28
0 18 7 25 30 30 17 4 30 11 30 17 0 6 14 8 32 6 28 -5 29 -4 13 9 -18 12 -18
13 2 13 12 0 30 -11 41 -25 11 -14 27 -25 36 -25 11 0 16 -7 14 -17 -2 -11 2
-17 10 -15 8 1 11 -2 7 -8 -4 -6 -3 -16 2 -23 5 -7 15 -29 22 -51 11 -31 11
-40 1 -46 -10 -6 -7 -14 11 -33 25 -25 44 -52 56 -76 16 -34 -22 -51 -244
-108 -13 -3 -23 -9 -23 -14 0 -5 -8 -9 -18 -9 -9 0 -34 -11 -54 -25 -20 -14
-47 -25 -59 -25 -12 0 -63 -18 -113 -39 -50 -22 -102 -43 -116 -46 -14 -4 -31
-12 -39 -19 -27 -21 -61 -86 -61 -115 0 -16 -7 -45 -15 -65 -14 -32 -14 -39 0
-66 22 -43 56 -184 63 -265 4 -38 12 -69 17 -68 6 1 17 -5 26 -13 17 -15 100
-33 87 -19 -11 12 19 62 51 86 19 14 27 27 24 40 -3 10 -9 16 -14 13 -5 -3 -9
1 -9 8 0 10 -3 9 -10 -2 -5 -8 -11 -12 -14 -9 -11 10 -17 94 -8 107 10 15 43
5 41 -12 -1 -6 -1 -24 0 -39 l1 -28 28 19 c28 20 85 39 137 45 26 4 25 4 -7 6
-43 1 -48 16 -18 49 28 30 43 28 57 -8 6 -16 19 -30 27 -30 9 0 27 -7 41 -16
22 -15 79 -14 138 3 10 2 17 -1 17 -10 0 -8 -31 -28 -68 -46 -65 -29 -75 -31
-193 -31 l-124 -1 38 -20 c55 -29 205 -44 277 -29 55 12 170 68 170 82 0 5 7
8 15 8 8 0 15 4 15 8 0 5 17 16 38 25 20 9 44 21 52 26 8 5 43 21 76 35 69 29
114 34 114 12 0 -8 13 -22 28 -31 35 -21 35 -55 -2 -113 -26 -42 -26 -66 0
-76 19 -7 18 -32 -1 -40 -11 -4 -15 -20 -15 -55 0 -28 -6 -55 -13 -63 -8 -7
-16 -25 -20 -39 -4 -14 -24 -44 -45 -67 -21 -23 -37 -44 -34 -46 7 -8 -32 -66
-44 -66 -7 0 -16 -10 -19 -22 -4 -13 -18 -34 -30 -48 -42 -46 -64 -109 -60
-175 2 -33 4 -67 4 -76 1 -8 10 -25 21 -37 12 -12 18 -22 15 -22 -3 0 7 -24
22 -52 40 -77 38 -132 -11 -228 -41 -81 -61 -99 -118 -106 -28 -4 -52 -12 -54
-19 -3 -7 -30 -38 -60 -69 -30 -31 -52 -61 -48 -67 10 -17 -6 -119 -19 -119
-7 0 -21 -12 -32 -26 -21 -28 -98 -72 -160 -90 -84 -25 -131 -45 -146 -63 -10
-13 -36 -21 -75 -26 -70 -8 -190 -46 -256 -81 -44 -23 -75 -28 -88 -13 -17 19
-100 68 -100 59 0 -9 -63 38 -126 95 -6 6 -37 26 -68 45 -71 44 -160 128 -217
206 -91 125 -195 360 -245 554 -47 188 -44 182 -102 176 -84 -9 -252 -54 -252
-66 0 -17 29 -29 80 -33 30 -3 63 -8 72 -12 31 -12 45 -105 17 -105 -5 0 -14
-11 -21 -24 -6 -15 -30 -33 -61 -46 -44 -19 -62 -21 -126 -16 -64 6 -82 4
-114 -13 -31 -16 -45 -18 -65 -10 -20 8 -40 6 -79 -6 l-53 -17 18 -23 c9 -13
20 -21 24 -19 4 2 9 1 12 -4 3 -5 0 -9 -7 -9 -7 0 -19 -4 -29 -8 -12 -4 -18 0
-24 17 -4 13 -7 25 -6 28 1 3 -10 11 -24 18 -33 17 -58 2 -85 -51 -30 -60 -37
-209 -14 -296 10 -39 15 -92 14 -137 -4 -89 5 -103 52 -80 49 25 119 21 144
-7 13 -16 36 -26 68 -30 26 -4 57 -11 67 -17 29 -15 25 -54 -7 -82 -37 -31
-52 -63 -55 -118 -2 -32 -7 -45 -18 -45 -16 0 -18 16 -6 50 5 18 1 21 -27 23
-17 1 -61 12 -96 23 -75 25 -132 21 -167 -12 -33 -31 -30 -53 16 -134 71 -125
99 -189 108 -249 11 -68 2 -109 -29 -142 -19 -20 -20 -26 -8 -40 8 -9 26 -42
40 -73 l26 -55 32 33 c21 22 60 43 114 63 140 50 137 50 183 28 57 -28 97 -67
91 -88 -3 -9 -20 -55 -37 -102 -34 -92 -35 -103 -6 -254 l15 -79 -51 -58 c-28
-33 -53 -59 -55 -59 -5 0 -137 -19 -180 -26 -40 -6 -43 -20 -5 -27 46 -9 73
-38 79 -85 5 -36 2 -46 -19 -67 -14 -14 -39 -30 -57 -36 -17 -6 -31 -17 -31
-24 0 -7 -8 -16 -17 -19 -10 -4 -15 -4 -11 -1 3 4 2 19 -4 35 -8 23 -17 30
-51 35 -23 4 -60 16 -81 26 -47 24 -104 18 -134 -14 -26 -28 -28 -39 -18 -108
6 -50 3 -66 -24 -137 -17 -44 -39 -91 -48 -104 -10 -13 -28 -47 -42 -76 -29
-64 -18 -86 27 -55 38 27 78 33 138 22 66 -12 77 -28 69 -104 -9 -84 -40 -144
-93 -175 -30 -17 -48 -39 -63 -70 -20 -45 -22 -66 -18 -192 2 -84 -15 -120
-70 -142 -55 -22 -78 -20 -117 10 -93 71 -109 238 -42 446 36 112 23 155 -59
197 -50 26 -87 66 -112 123 -16 38 -26 48 -53 53 -113 25 -172 60 -188 113
-10 34 -8 42 26 102 66 115 65 129 -12 210 -39 42 -40 50 -10 87 25 30 66 98
101 166 12 23 36 52 55 64 34 23 94 30 118 15 19 -12 53 -100 59 -157 10 -79
44 -103 169 -120 27 -4 58 -13 69 -21 30 -21 60 -17 90 11 34 31 33 62 -3 111
-15 22 -34 58 -41 79 -7 22 -20 54 -29 70 -30 58 -37 89 -29 145 4 32 3 77 -3
107 -13 63 1 122 36 157 17 17 25 36 25 58 0 51 -27 198 -44 247 -29 80 -22
112 35 176 l52 56 -27 52 c-14 29 -26 58 -26 65 0 30 -32 70 -74 93 -50 26
-56 43 -27 80 10 13 21 48 25 77 4 29 21 80 38 112 36 69 34 88 -18 145 -44
48 -68 99 -85 181 -11 56 -11 63 7 86 10 14 34 31 52 38 18 6 37 21 41 33 9
24 7 31 -39 162 -29 80 -32 99 -27 166 4 61 12 88 41 145 20 38 39 92 42 119
6 48 56 166 90 212 14 20 14 22 -3 31 -10 6 -49 36 -88 66 -100 80 -104 79
-125 -44 -7 -36 -23 -90 -37 -120 -18 -40 -23 -65 -19 -95 18 -142 18 -154 1
-209 -25 -78 -73 -126 -126 -126 -33 0 -48 7 -74 33 -46 46 -83 170 -95 317
-10 121 -6 547 6 627 9 63 51 150 85 174 36 25 113 25 156 0 29 -18 93 -99 93
-119 0 -17 37 -43 52 -37 29 11 58 161 58 297 0 135 -9 165 -53 186 -24 12
-39 11 -100 -2 -40 -9 -94 -18 -122 -21 -71 -8 -95 -22 -95 -58 0 -38 -28
-133 -50 -170 -10 -15 -28 -36 -40 -44 -32 -22 -49 -72 -56 -160 -4 -50 -19
-114 -42 -178 -34 -96 -35 -105 -33 -228 1 -111 -2 -135 -19 -175 -12 -27 -24
-79 -27 -122 -3 -42 -19 -119 -38 -175 -70 -220 -70 -221 -51 -262 29 -62 32
-126 7 -167 -26 -41 -58 -54 -155 -60 -68 -5 -106 -23 -106 -52 0 -34 -46 -88
-94 -110 -28 -13 -57 -24 -64 -24 -30 0 -102 -47 -170 -111 -40 -39 -82 -70
-95 -71 -67 -4 -92 9 -132 72 -37 58 -39 114 -10 200 20 58 25 86 20 123 -11
92 26 163 111 213 78 46 177 31 222 -33 10 -16 27 -50 37 -76 29 -76 68 -84
97 -19 9 20 34 56 55 79 37 41 40 42 97 41 90 -3 97 19 59 182 -9 36 -18 118
-22 184 -7 114 -8 119 -36 143 -23 20 -35 24 -66 19 -36 -6 -124 6 -136 18 -6
5 -14 230 -13 330 0 25 14 65 38 110 l37 71 0 135 c0 150 -10 120 90 279 26
40 32 58 25 71 -5 10 -7 20 -4 23 3 3 -7 14 -22 24 -26 16 -53 18 -299 17
-296 -1 -301 -2 -362 -63 -17 -16 -58 -77 -92 -135 -43 -75 -74 -115 -103
-136 -75 -55 -102 -38 -139 84 -23 79 -43 107 -109 153 -55 38 -87 74 -96 108
-5 20 2 34 35 70 46 50 52 86 26 148 -20 47 -20 47 13 82 30 33 67 90 97 149
23 45 71 96 89 96 21 0 44 69 52 150 3 41 17 110 31 154 27 86 28 71 -21 205
-14 37 -15 60 -7 146 5 59 16 116 26 135 9 18 21 72 25 121 5 48 11 92 14 97
9 15 26 139 31 222 3 51 11 93 24 117 10 21 35 85 54 143 28 86 33 114 28 155
-12 97 -7 198 14 260 15 47 32 73 77 117 32 32 58 64 58 72 0 7 -14 44 -31 80
-29 61 -31 73 -27 149 3 45 8 90 12 100 7 16 0 17 -92 17 l-100 0 -6 -31 c-3
-17 -6 -55 -6 -84 0 -122 -79 -276 -133 -261 -12 3 -27 6 -33 6 -24 0 -25 82
-3 145 12 33 23 74 25 90 2 17 6 43 9 58 3 16 2 40 -1 53 -6 23 -10 24 -81 24
-121 0 -152 -27 -153 -133 0 -73 -11 -97 -65 -152 -34 -35 -130 -105 -144
-105 -7 0 -69 -65 -102 -107 -19 -25 -6 -30 98 -32 126 -3 163 -15 186 -64 25
-53 21 -94 -19 -172 -31 -60 -37 -82 -40 -155 -3 -47 -5 -96 -6 -110 -1 -14 2
-40 6 -57 7 -30 5 -34 -21 -44 -40 -15 -202 -17 -236 -1 l-28 12 18 28 c28 40
19 67 -28 86 -22 9 -46 16 -54 16 -20 0 -47 43 -44 72 4 47 -1 87 -14 100 -7
7 -18 26 -25 42 -11 24 -17 27 -45 23 -17 -3 -72 -10 -122 -17 -64 -9 -105
-21 -142 -41 -65 -36 -85 -36 -151 -3 -105 52 -132 160 -67 264 35 54 43 84
26 94 -4 3 -11 29 -15 57 -4 29 -16 70 -28 93 -37 72 -25 162 32 246 41 61 42
60 -101 60 l-130 0 7 -22z m11712 -184 c4 -5 16 -10 27 -12 86 -13 120 -74 78
-143 -20 -31 -30 -37 -87 -48 -36 -7 -73 -19 -83 -27 -11 -8 -46 -14 -93 -14
-76 0 -218 -27 -279 -52 -33 -13 -34 -16 -36 -71 -1 -32 -7 -63 -13 -69 -7 -7
-12 -22 -12 -35 0 -22 -10 -30 -23 -16 -4 3 -2 12 4 19 6 7 7 19 3 26 -5 7 -9
19 -9 27 0 8 -28 29 -63 47 l-63 34 -94 -12 c-76 -10 -101 -9 -136 2 -34 11
-39 15 -22 18 21 3 39 29 28 40 -3 3 -5 0 -5 -6 0 -7 -10 -12 -22 -11 -15 0
-18 2 -8 6 23 9 60 45 60 59 0 23 59 82 99 97 21 9 64 34 96 56 57 40 107 53
120 31 3 -5 17 -10 30 -10 14 0 26 -7 30 -19 6 -19 71 -34 111 -26 197 42 324
85 324 111 0 14 28 13 38 -2z m-4763 -18 c34 -21 41 -32 52 -78 7 -29 12 -66
13 -81 0 -38 -28 -90 -45 -83 -20 7 -37 -19 -30 -47 5 -17 2 -26 -9 -30 -18
-7 -28 5 -20 26 3 8 -2 17 -10 20 -9 4 -16 14 -16 23 0 9 -7 22 -15 28 -36 26
-55 196 -22 196 5 0 7 3 4 6 -12 12 14 44 36 44 12 0 40 -11 62 -24z m-1042
-70 c15 -10 27 -23 27 -29 0 -6 7 -19 17 -29 9 -10 21 -28 27 -40 6 -13 21
-27 32 -33 22 -11 21 -34 -2 -48 -8 -4 -21 -22 -30 -39 -23 -44 -54 -67 -84
-62 -68 11 -136 27 -151 35 -21 11 -44 128 -29 143 6 6 10 17 10 26 0 21 44
70 64 70 9 0 19 6 22 14 7 19 63 15 97 -8z m7332 -480 c43 -29 55 -47 52 -76
-4 -48 -115 -76 -181 -45 -35 17 -36 18 -35 72 2 51 4 55 33 67 39 17 92 9
131 -18z m-4750 -300 c29 -12 34 -20 40 -59 7 -46 26 -74 70 -103 28 -19 33
-57 10 -80 -8 -9 -15 -13 -15 -9 0 3 -11 -7 -24 -22 -23 -26 -31 -28 -110 -32
-74 -3 -86 -1 -86 13 0 16 -10 20 -42 17 -25 -3 -73 36 -94 74 -16 29 -22 33
-58 31 -38 -1 -41 1 -47 31 -11 54 8 77 71 85 31 4 59 13 66 22 6 9 18 16 27
16 9 0 19 5 22 11 4 6 29 8 61 5 30 -2 56 0 60 5 7 12 9 12 49 -5z m5095 -156
c0 -34 -19 -82 -31 -75 -4 3 -10 -3 -14 -14 -3 -11 -22 -23 -48 -30 -45 -11
-175 -41 -183 -41 -11 0 -2 31 10 36 8 3 12 12 9 20 -3 8 0 14 5 14 6 0 12 10
14 21 2 12 10 25 18 29 8 4 42 21 75 37 37 19 76 32 103 32 40 1 42 0 42 -29z
m-7907 -66 c-4 -10 4 -14 32 -14 20 0 34 -4 30 -9 -3 -5 5 -11 17 -13 l23 -3
-23 -20 c-13 -11 -38 -32 -55 -47 -18 -15 -40 -28 -49 -28 -10 0 -18 -4 -18
-9 0 -14 -73 6 -86 23 -6 9 -16 16 -23 16 -6 0 -11 5 -11 11 0 6 7 9 15 5 8
-3 15 -2 15 3 0 15 47 30 58 19 7 -7 14 -4 24 11 7 11 20 21 28 22 8 0 10 3 4
5 -16 7 -5 54 11 47 8 -2 11 -11 8 -19z m1719 -308 c4 -6 5 -20 2 -31 -4 -15
3 -25 26 -38 25 -15 30 -24 30 -58 0 -51 -25 -102 -48 -97 -18 4 -18 9 -8 43
5 18 1 20 -41 20 -27 1 -48 6 -51 13 -6 19 -49 14 -65 -8 -18 -26 -27 -16 -27
29 0 58 30 119 63 127 15 3 27 9 27 13 0 11 84 0 92 -13z m-3040 -81 c18 -3
38 -6 45 -7 7 -1 10 -5 7 -9 -3 -5 0 -17 5 -28 9 -16 2 -31 -39 -87 -28 -38
-66 -81 -86 -95 -20 -14 -47 -43 -59 -65 -18 -33 -27 -39 -58 -42 l-37 -3 0
54 c0 56 -7 69 -65 112 -20 15 -20 15 5 36 14 11 35 29 48 40 38 33 183 109
194 103 3 -2 21 -7 40 -9z m3902 -62 c5 -11 25 -31 44 -44 28 -19 50 -24 115
-26 44 -2 86 -8 93 -14 17 -14 18 -84 3 -145 -13 -51 -2 -74 37 -74 25 0 40
-15 24 -25 -5 -3 -10 -16 -10 -27 0 -12 -3 -19 -6 -15 -4 3 -19 0 -35 -8 -42
-22 -121 -19 -153 6 -14 11 -26 28 -26 37 -1 23 -31 58 -58 66 -16 5 -29 0
-49 -18 -36 -34 -102 -39 -130 -10 -8 7 -19 17 -26 21 -20 13 -47 70 -47 100
0 41 29 147 41 152 6 1 18 12 29 23 14 15 29 19 64 17 25 -2 49 0 53 4 11 11
27 3 37 -20z m-1508 -43 c3 -39 6 -54 10 -45 2 6 20 9 39 7 27 -3 35 -1 35 12
0 9 5 16 10 16 6 0 13 0 18 0 10 0 10 -53 0 -67 -6 -7 -7 -16 -4 -22 6 -9 -44
-51 -61 -51 -4 0 -25 5 -45 10 -35 10 -36 12 -27 42 5 17 8 33 6 34 -1 1 -19
4 -40 8 -30 6 -37 4 -31 -5 4 -7 3 -10 -4 -6 -11 8 -5 44 9 53 5 3 6 -2 3 -10
-4 -11 0 -16 11 -16 11 0 15 5 11 15 -7 18 21 47 43 43 9 -2 16 -10 17 -18z
m4782 -98 c6 -9 12 -25 12 -36 0 -12 7 -41 16 -66 15 -42 21 -47 88 -75 39
-16 76 -28 82 -27 23 5 46 -38 51 -95 5 -55 3 -63 -46 -158 -63 -120 -66 -123
-116 -146 -69 -32 -96 -26 -146 31 -125 143 -120 133 -126 208 -5 61 -3 75 16
105 13 22 21 51 21 80 0 30 6 51 16 59 54 45 78 71 67 75 -7 3 -13 13 -13 23
0 10 -5 22 -10 25 -6 4 -8 11 -4 16 8 14 77 0 92 -19z m-3357 -238 c4 -2 9
-18 12 -36 2 -18 12 -64 20 -103 16 -70 16 -70 -7 -91 -32 -30 -59 -37 -118
-29 -67 9 -118 57 -118 110 0 19 5 35 10 35 6 0 10 -5 10 -11 0 -8 5 -7 16 2
10 8 14 22 10 41 -3 17 0 33 10 42 8 9 15 19 14 23 0 4 8 8 18 8 9 1 26 6 37
13 17 10 66 8 86 -4z m3392 -604 c38 -44 50 -116 31 -180 -15 -49 -14 -54 6
-98 17 -35 20 -57 16 -96 -3 -28 -7 -142 -10 -253 -3 -165 -7 -208 -22 -238
-23 -50 -67 -75 -128 -75 -40 0 -57 6 -92 33 -55 41 -63 83 -41 216 25 150 36
242 34 292 -1 34 3 53 17 68 10 11 22 19 25 16 9 -5 71 26 71 36 0 5 -12 15
-28 23 -15 8 -38 33 -51 56 -20 36 -23 50 -17 98 8 68 26 97 69 116 54 24 92
20 120 -14z m-2263 -134 c18 -25 44 -54 56 -65 28 -24 29 -46 10 -144 -8 -44
-21 -76 -36 -92 -27 -29 -105 -55 -161 -55 -32 0 -40 5 -54 33 -9 17 -19 59
-21 92 -7 69 6 108 59 176 18 24 36 52 40 62 3 9 14 17 22 17 9 0 13 5 10 10
-3 6 4 10 18 10 16 0 34 -14 57 -44z m3804 -531 c49 -21 64 -55 63 -143 0 -66
-3 -76 -32 -109 -28 -32 -36 -36 -75 -35 -46 2 -70 15 -70 39 0 7 -10 27 -21
43 -45 61 -28 203 25 213 44 9 75 6 110 -8z m-7072 -80 c7 -9 28 -31 46 -50
61 -66 34 -89 -118 -101 -120 -9 -193 -28 -248 -63 -94 -60 -141 -4 -65 79 50
56 81 77 176 116 93 38 186 46 209 19z m5258 -88 c0 -10 7 -29 16 -42 9 -14
12 -25 6 -25 -12 0 -5 -64 10 -93 12 -23 19 -54 22 -92 1 -17 9 -41 18 -54
l17 -24 70 16 c101 25 117 23 157 -19 37 -40 39 -49 23 -109 -20 -78 -49 -109
-111 -119 -27 -4 -120 22 -129 36 -4 6 -25 11 -48 12 -24 1 -46 7 -49 13 -4 5
-14 13 -22 16 -11 4 -9 7 8 13 31 9 23 26 -16 36 -18 5 -32 12 -32 17 0 5 -3
22 -6 38 -5 25 -2 31 15 36 26 7 27 23 1 37 -11 6 -22 26 -26 48 -8 45 -10 53
-28 117 -8 30 -10 61 -6 76 5 16 4 31 -3 38 -8 8 -5 16 9 30 26 27 104 25 104
-2z m-9822 -463 c32 -22 62 -87 62 -131 -1 -30 -21 -149 -30 -173 -2 -3 -6
-15 -11 -27 -16 -42 -86 -25 -143 36 -31 32 -77 151 -69 179 6 23 20 40 75 90
51 45 80 52 116 26z m-1649 -1040 c16 -15 26 -107 17 -157 -7 -37 -52 -91 -85
-102 -49 -15 -110 45 -118 116 -5 54 18 95 78 139 44 31 78 33 108 4z m1059
-137 c37 -34 80 -136 96 -227 10 -57 26 -105 48 -145 32 -59 33 -62 33 -187 0
-76 5 -132 11 -138 6 -6 41 -14 79 -19 54 -6 72 -13 88 -32 45 -56 -11 -170
-91 -185 -19 -4 -58 -1 -88 5 -73 17 -125 16 -181 -2 -26 -9 -77 -20 -112 -26
-77 -13 -107 -37 -116 -95 -12 -82 -17 -97 -42 -126 -42 -50 -107 -34 -123 31
-3 11 -2 68 1 127 7 122 20 155 93 240 25 30 48 63 50 75 3 12 7 78 11 147 3
69 12 150 20 180 8 30 15 84 15 120 0 128 42 227 114 271 35 21 59 17 94 -14z
m1421 -121 c163 -12 164 -13 188 -42 50 -62 42 -89 -39 -130 -27 -14 -80 -55
-118 -92 l-68 -67 9 -210 c10 -238 6 -266 -56 -344 -39 -49 -41 -65 -20 -148
8 -32 15 -99 15 -153 0 -80 -5 -109 -30 -180 -35 -99 -37 -128 -10 -178 26
-49 40 -66 67 -80 22 -12 53 -7 53 8 0 5 20 32 44 60 52 61 53 66 65 220 l8
115 63 118 c72 136 96 168 145 191 31 15 38 15 63 2 67 -35 79 -144 27 -246
-33 -65 -32 -98 8 -178 33 -69 36 -94 36 -321 0 -18 -9 -61 -21 -94 -19 -56
-20 -68 -9 -133 14 -84 9 -100 -55 -195 -47 -68 -114 -234 -114 -282 0 -15 15
-50 35 -78 35 -52 65 -132 65 -177 0 -14 -5 -52 -11 -86 -9 -50 -9 -75 5 -140
37 -178 14 -240 -102 -276 -37 -12 -90 -24 -118 -27 -50 -5 -54 -4 -93 33 -57
53 -71 123 -70 348 0 144 4 183 25 270 13 57 29 164 35 246 12 162 5 203 -44
234 -33 22 -54 12 -82 -43 -31 -63 -34 -86 -39 -296 -5 -192 -13 -238 -67
-378 -19 -51 -33 -110 -39 -170 -5 -51 -23 -146 -40 -212 -17 -66 -35 -151
-40 -190 -15 -107 -26 -136 -78 -190 -61 -65 -75 -75 -107 -81 -29 -5 -75 18
-75 38 0 16 -59 106 -95 145 -36 39 -122 78 -190 87 -74 10 -82 14 -96 49 -15
35 -15 36 -25 90 -6 35 -4 41 30 72 21 19 45 37 54 40 30 9 64 76 89 178 24
96 25 105 13 183 -22 141 -3 205 96 316 31 34 62 75 70 90 18 35 14 88 -10
113 -29 31 -122 157 -136 184 -7 14 -16 54 -21 90 -5 36 -22 113 -39 171 -51
171 -55 194 -42 237 6 21 20 48 29 58 66 73 74 87 67 121 -17 94 28 175 131
234 30 17 69 46 86 65 51 54 160 61 173 11 9 -37 -11 -88 -50 -122 -85 -76
-75 -214 16 -214 37 0 65 41 89 130 36 140 51 183 77 222 29 45 30 69 3 128
-30 67 -34 127 -13 196 21 69 23 125 5 156 -7 13 -34 37 -59 53 -67 43 -124
132 -128 197 -3 66 10 91 67 133 26 19 66 59 89 91 l42 56 52 -6 c28 -4 125
-13 215 -20z m-2544 -212 c35 -23 39 -61 14 -130 -14 -36 -21 -77 -20 -108 3
-94 -35 -137 -122 -140 l-52 -1 -3 42 c-2 29 4 56 22 92 20 39 26 65 26 117 0
71 18 115 54 133 31 14 54 13 81 -5z m3032 -30 c24 -24 25 -31 20 -84 -10 -88
-29 -132 -85 -197 -43 -49 -53 -68 -58 -109 -7 -55 -41 -124 -61 -124 -10 0
-13 40 -13 191 0 220 7 256 62 311 48 48 95 52 135 12z m2823 -574 c78 -77
374 -287 429 -305 19 -6 71 -50 71 -60 0 -16 103 -106 143 -124 42 -20 47 -26
47 -54 -1 -32 -29 -77 -49 -77 -5 0 -13 -15 -16 -34 l-7 -34 -89 -7 c-94 -7
-168 4 -229 33 -41 20 -148 173 -170 242 -20 65 -209 444 -258 518 -23 35 -42
67 -42 72 0 5 23 -17 52 -48 29 -31 82 -86 118 -122z m-2492 18 c16 -16 15
-59 -1 -83 -8 -11 -22 -45 -31 -75 -22 -69 -32 -80 -67 -80 -53 0 -75 78 -47
168 9 30 20 41 57 59 54 25 73 27 89 11z m1912 -422 c0 -14 7 -32 16 -41 21
-20 12 -70 -20 -117 -24 -37 -39 -88 -25 -88 5 0 9 -8 9 -17 0 -15 -2 -16 -10
-3 -5 8 -22 15 -37 15 -27 1 -28 -1 -24 -43 2 -25 6 -40 10 -35 3 6 16 15 29
22 18 10 23 9 28 -3 8 -21 -15 -86 -32 -93 -8 -3 -14 -14 -14 -24 0 -27 -27
-24 -46 6 -13 20 -15 41 -10 112 4 49 8 109 10 135 4 60 21 103 63 156 39 48
53 53 53 18z m-259 -192 c7 -18 8 -18 9 1 1 11 4 14 7 8 2 -7 12 -13 21 -13
14 0 14 -2 3 -9 -7 -5 -11 -13 -7 -19 3 -6 -1 -15 -10 -20 -13 -7 -18 -33 -24
-123 -4 -63 -13 -127 -19 -142 -6 -16 -8 -46 -5 -68 5 -26 -1 -72 -16 -137
-20 -85 -28 -101 -59 -129 -20 -18 -39 -33 -42 -33 -12 0 -31 270 -26 365 10
168 35 256 92 322 24 27 65 26 76 -3z m-211 -13 c0 -12 -12 -24 -29 -32 -18
-8 -28 -19 -26 -29 3 -13 -5 -17 -39 -17 -23 0 -60 -9 -82 -20 -62 -33 -133
-63 -148 -63 -8 0 -16 -5 -18 -11 -2 -6 -13 -9 -23 -7 -18 4 -16 6 11 24 26
16 30 25 30 62 l-1 43 40 -2 c39 -2 109 15 131 32 6 5 31 9 55 9 67 -1 89 3
89 17 0 7 2 13 5 13 3 0 5 -9 5 -19z m614 -144 c13 -74 3 -95 -57 -120 -29
-12 -71 -31 -94 -43 l-42 -21 15 29 c8 15 11 28 7 28 -5 0 -3 4 4 8 6 4 13 13
15 21 2 7 14 25 28 41 14 15 38 46 53 69 37 56 59 52 71 -12z m-704 -37 c0 -6
15 -8 39 -4 37 6 40 4 56 -26 16 -32 16 -33 -13 -64 -38 -40 -46 -65 -28 -85
14 -16 27 -101 15 -101 -4 0 -6 -16 -6 -35 1 -19 5 -35 9 -35 4 0 5 -7 2 -15
-4 -8 -2 -15 3 -15 12 0 34 -95 27 -114 -3 -9 -26 -18 -52 -22 -26 -3 -54 -12
-62 -19 -8 -6 -22 -14 -30 -18 -8 -3 -32 -12 -53 -21 -37 -16 -38 -16 -47 6
-10 22 -10 22 -6 -2 5 -23 -3 -30 -95 -78 -54 -29 -110 -63 -123 -75 -13 -12
-32 -28 -41 -35 -17 -15 -16 -33 3 -40 7 -2 12 3 12 12 0 27 139 118 216 140
14 4 24 2 27 -8 4 -10 -13 -25 -56 -50 -60 -33 -191 -119 -255 -166 -36 -26
-116 -30 -140 -6 -15 14 -15 22 -15 211 1 66 1 134 1 150 -1 63 15 110 46 141
17 18 39 43 49 58 10 15 23 24 28 21 21 -14 41 -86 50 -179 8 -91 13 -116 23
-105 2 2 0 38 -3 79 -9 108 24 310 50 310 6 0 7 5 4 10 -4 6 11 10 39 9 53 -3
80 15 73 48 -6 33 25 30 41 -4 17 -37 15 -56 -8 -86 -25 -31 -25 -37 -1 -37
25 0 30 -16 41 -136 5 -55 13 -112 19 -129 9 -28 9 -26 10 20 0 28 -4 69 -9
92 -16 70 -14 233 3 273 19 44 80 110 102 110 8 0 18 7 21 15 7 17 34 21 34 5z
m693 -257 c-2 -32 -8 -69 -13 -83 -38 -118 -107 -432 -108 -490 -1 -59 -12
-181 -16 -189 -3 -5 2 -8 11 -7 9 0 18 -5 20 -11 3 -8 -5 -13 -19 -14 -12 0
-17 -3 -10 -6 18 -7 15 -33 -5 -33 -13 0 -14 -3 -5 -12 16 -16 15 -28 0 -28
-7 0 -14 -10 -14 -22 -3 -33 -12 -103 -14 -103 -11 0 -20 -345 -9 -360 8 -11
21 -151 21 -230 1 -80 -11 -203 -27 -295 -18 -102 -19 -367 -2 -389 9 -12 9
-13 0 -7 -9 5 -13 0 -13 -13 0 -12 6 -21 13 -22 10 0 10 -2 0 -6 -7 -2 -13
-11 -13 -18 0 -7 6 -16 13 -18 9 -4 8 -8 -3 -16 -13 -10 -13 -12 0 -21 13 -9
13 -11 0 -20 -13 -9 -13 -11 0 -20 13 -9 13 -11 1 -19 -12 -8 -12 -12 -2 -24
9 -12 9 -16 -1 -19 -10 -4 -10 -8 1 -21 7 -10 9 -17 4 -17 -6 0 -10 -84 -10
-222 0 -123 -1 -410 -2 -638 -1 -228 0 -477 2 -552 3 -87 1 -138 -6 -138 -6 0
-6 -5 1 -12 5 -7 11 -58 12 -113 3 -159 25 -540 30 -540 1 0 3 -15 5 -33 2
-21 -3 -35 -14 -42 -14 -8 -14 -9 2 -10 9 0 17 -7 17 -15 0 -8 -7 -15 -15 -15
-8 0 -15 -4 -15 -10 0 -5 7 -7 15 -4 9 4 15 0 15 -10 0 -9 -7 -16 -15 -16 -8
0 -15 -4 -15 -10 0 -5 5 -9 12 -7 6 1 14 -6 16 -15 2 -12 -3 -18 -15 -19 -16
-1 -17 -2 0 -6 9 -2 17 -11 17 -19 0 -8 -8 -15 -17 -15 -17 -1 -17 -2 0 -6 20
-5 23 -29 5 -37 -10 -5 -10 -7 0 -12 6 -3 12 -12 12 -20 0 -8 -6 -14 -12 -14
-9 0 -10 -3 -2 -8 14 -9 15 -292 1 -292 -5 0 -4 -7 3 -15 10 -13 11 -18 1 -28
-10 -9 -15 -8 -25 5 -9 13 -11 58 -8 177 4 129 1 170 -11 209 -9 27 -25 107
-36 178 -32 214 -33 236 -6 214 9 -7 16 -6 24 4 9 10 7 34 -8 98 -14 59 -21
125 -22 219 0 88 -6 148 -15 174 -19 52 -29 135 -17 135 6 0 18 -9 28 -20 10
-11 25 -20 32 -20 10 0 2 17 -22 50 -28 37 -40 69 -51 123 -8 39 -18 95 -24
122 -5 28 -12 91 -15 140 -3 50 -9 124 -12 165 -9 116 -8 204 5 345 7 77 9
173 6 235 -4 58 -7 132 -6 165 0 33 1 75 1 94 1 19 5 37 9 40 10 7 -7 182 -21
221 -7 18 -12 71 -27 292 -15 205 -9 920 7 963 7 17 14 82 18 145 6 118 7 138
21 250 5 36 8 76 7 90 -3 34 15 144 33 205 8 28 21 95 29 150 28 204 36 227
91 254 25 11 55 21 68 21 13 0 34 9 47 20 13 10 34 19 46 20 20 0 21 -3 16
-57z m-4598 -432 c50 -22 97 -76 93 -105 -2 -13 -18 -28 -40 -39 -33 -16 -52
-18 -154 -11 -98 6 -119 10 -135 27 -43 47 -16 98 65 126 76 25 119 26 171 2z
m3904 -80 c56 -57 61 -76 61 -212 0 -80 -6 -124 -34 -231 l-35 -133 -3 -327
c-2 -179 0 -324 4 -322 3 2 8 -1 10 -7 7 -20 33 2 61 51 15 28 27 55 27 62 0
6 12 35 27 65 31 64 45 154 48 313 3 133 15 193 61 310 19 47 39 108 46 137 6
29 15 50 20 47 11 -7 8 -54 -8 -129 -29 -136 -45 -571 -30 -822 5 -87 4 -123
-5 -128 -6 -4 -15 -1 -20 6 -7 11 -11 10 -23 -6 -7 -11 -35 -47 -60 -79 -47
-61 -49 -66 -47 -102 1 -11 -5 -41 -13 -65 -47 -137 29 -215 123 -128 l33 30
-5 82 c-2 51 0 95 8 117 12 34 13 34 19 10 3 -14 11 -119 17 -235 22 -411 22
-390 6 -377 -11 10 -16 7 -25 -13 -6 -14 -16 -25 -22 -25 -5 0 -10 -5 -10 -11
0 -6 -17 -31 -39 -57 -40 -49 -58 -101 -40 -119 6 -6 12 -30 14 -54 3 -43 24
-64 40 -40 9 16 45 -6 45 -27 1 -16 1 -16 11 1 7 12 7 28 -1 53 -9 27 -9 47 1
87 6 28 13 63 14 77 3 42 5 46 15 30 5 -8 9 -46 9 -85 -1 -38 2 -107 6 -152 6
-65 4 -87 -9 -113 -8 -18 -13 -37 -9 -43 3 -5 6 -24 5 -41 -1 -22 2 -26 8 -16
6 10 10 -85 10 -253 l0 -268 -22 12 c-13 6 -30 17 -38 24 -8 7 -30 15 -48 17
-32 4 -33 4 -32 -31 0 -20 -1 -52 -2 -71 -4 -60 13 -171 24 -164 6 4 8 2 4 -4
-3 -6 -2 -13 3 -17 20 -12 32 69 17 117 -17 57 -7 78 37 78 60 -1 69 -17 78
-142 4 -62 11 -141 15 -175 4 -40 3 -63 -3 -63 -17 0 -133 128 -144 159 -8 24
-15 29 -36 27 -17 -2 -30 -12 -35 -27 -12 -31 -2 -83 18 -100 9 -7 20 -24 25
-36 11 -29 38 -41 50 -22 7 11 24 -2 74 -56 l65 -70 0 -61 0 -61 -42 8 c-24 4
-46 8 -49 9 -4 0 -12 13 -18 28 -7 16 -21 35 -32 43 -12 8 -35 26 -53 41 -37
32 -93 40 -81 11 5 -10 9 -36 11 -58 1 -22 5 -47 8 -55 11 -29 14 -67 6 -79
-9 -15 -20 7 -26 54 -3 17 -9 50 -14 75 -5 25 -11 64 -14 86 -3 23 -28 86 -55
140 -35 71 -52 120 -60 174 -6 41 -16 102 -22 135 -11 69 -14 192 -4 217 4 10
4 36 1 58 -5 39 -4 41 24 47 16 3 27 9 25 14 -3 4 3 12 12 18 14 7 15 13 6 22
-13 13 -7 227 7 244 18 23 22 85 7 122 -8 21 -13 57 -11 79 2 23 -6 77 -18
120 -11 44 -24 108 -28 144 -5 36 -13 110 -19 165 -17 144 -28 849 -17 1020
25 392 44 538 93 742 7 32 -5 104 -22 127 -11 14 -32 21 -84 25 -109 10 -148
-9 -192 -93 -24 -45 -53 -225 -43 -268 8 -37 -13 -132 -36 -160 -10 -14 -20
-47 -23 -78 -3 -30 -9 -70 -13 -88 -9 -34 -9 -34 -28 -14 -12 14 -22 52 -31
114 -8 51 -21 118 -30 148 -36 115 -40 145 -24 186 14 36 18 39 54 39 40 0 43
4 59 76 16 74 232 218 329 219 33 0 45 -7 86 -49z m-789 -178 c12 -27 34 -73
50 -103 15 -30 45 -95 65 -145 21 -49 42 -99 49 -110 6 -11 12 -58 12 -105 2
-84 29 -196 59 -244 7 -12 16 -32 20 -46 11 -37 -64 67 -131 185 -87 150 -174
444 -174 585 0 46 25 37 50 -17z m7015 -131 c31 -22 40 -132 11 -132 -7 0 -27
-16 -44 -36 -18 -20 -34 -35 -36 -33 -2 2 -6 50 -10 107 l-6 102 37 0 c21 0
43 -4 48 -8z m-7339 -427 c31 -31 94 -161 94 -195 0 -14 -9 -45 -20 -69 -25
-55 -25 -73 1 -97 37 -33 49 -70 49 -146 0 -48 -7 -96 -22 -141 -22 -67 -22
-68 -2 -87 20 -20 20 -20 79 0 46 16 60 17 67 8 25 -41 22 -231 -5 -303 -9
-22 -16 -33 -16 -24 -1 9 -7 16 -13 17 -7 0 -32 7 -56 14 l-43 12 -69 -74
c-41 -45 -69 -84 -70 -97 0 -13 19 -53 41 -90 23 -38 55 -96 70 -130 16 -35
30 -63 33 -63 2 0 35 19 72 41 49 30 72 39 83 32 29 -18 43 -88 51 -248 5 -93
15 -185 25 -219 14 -52 15 -76 5 -195 -15 -186 -16 -191 -50 -191 -16 0 -30 3
-32 8 -8 19 -205 74 -294 83 -59 5 -113 17 -142 30 -85 38 -215 79 -252 79
-20 0 -63 10 -96 22 -42 16 -94 24 -184 29 -69 4 -132 9 -140 11 -30 10 -54
22 -71 36 -14 12 -15 18 -5 28 10 9 11 28 4 71 -4 32 -5 75 -2 95 7 44 -9 78
-37 78 -11 0 -45 -13 -77 -29 -60 -30 -156 -61 -190 -61 -33 0 -35 -16 -8 -71
20 -42 22 -56 14 -80 -12 -34 -41 -53 -68 -44 -23 7 -100 79 -100 93 0 5 14
15 30 22 17 7 30 20 30 29 0 9 5 22 12 29 9 9 9 12 0 12 -7 0 -12 4 -12 9 0 6
-12 23 -26 38 -29 31 -62 92 -75 135 -6 23 -2 35 24 69 46 59 107 89 184 89
51 0 72 -6 127 -35 37 -19 75 -35 85 -35 25 0 81 90 81 131 0 29 1 30 43 24
23 -3 74 -8 112 -10 120 -9 123 -10 234 -112 66 -61 137 -96 194 -95 58 1 67
15 71 112 3 93 21 143 78 218 l32 42 -24 53 c-42 95 -69 181 -76 245 -6 57 -4
68 25 126 38 77 38 104 5 246 -25 107 -25 111 -9 154 14 36 15 51 6 77 -18 52
-13 168 9 217 20 43 31 51 129 87 52 18 59 18 87 -10z m336 -155 c11 -25 38
-94 59 -154 22 -60 80 -192 130 -294 71 -144 88 -186 77 -193 -9 -6 -19 -2
-30 14 -10 12 -22 27 -27 33 -5 6 -21 30 -36 54 -23 36 -29 41 -36 27 -18 -32
-21 -118 -6 -161 29 -79 79 -257 74 -262 -10 -10 -78 131 -95 196 -9 36 -27
81 -39 100 -29 45 -52 111 -63 180 -4 30 -20 111 -34 179 -32 154 -38 364 -10
340 9 -8 26 -34 36 -59z m109 -38 c35 -39 43 -55 44 -92 3 -71 81 -216 176
-327 75 -88 79 -93 71 -93 -20 0 -163 145 -206 210 -62 92 -156 280 -156 312
0 25 7 38 21 38 4 0 27 -21 50 -48z m-1462 -51 c19 -15 25 -30 28 -72 5 -53 4
-55 -41 -102 -34 -35 -46 -55 -46 -78 0 -40 39 -75 93 -84 61 -10 92 -30 107
-65 21 -50 15 -101 -15 -127 -27 -24 -35 -26 -97 -25 -29 1 -42 -5 -62 -29
-30 -35 -34 -58 -39 -199 -5 -156 -37 -198 -128 -171 -57 17 -104 69 -119 130
-12 53 -11 75 20 228 17 84 17 98 4 155 -22 93 -18 314 6 348 83 117 204 155
289 91z m2730 -1516 c-4 -148 -8 -416 -9 -595 -1 -179 -6 -350 -10 -380 -5
-32 -7 119 -4 360 5 536 15 916 24 899 3 -8 3 -135 -1 -284z m-3349 -390 c7
-8 23 -57 36 -109 27 -112 25 -124 -70 -337 -18 -41 -26 -83 -31 -155 -12
-172 -60 -233 -108 -140 -19 37 -20 44 -7 120 21 132 21 159 -6 202 -62 101
-77 144 -70 200 7 57 49 139 94 183 45 45 138 65 162 36z m2774 -866 c15 -22
29 -50 31 -61 5 -23 24 -53 53 -84 11 -12 22 -34 24 -50 2 -22 8 -28 23 -26
19 2 19 2 3 -11 -20 -16 -23 -43 -8 -82 7 -18 6 -31 -3 -46 -8 -13 -9 -22 -2
-27 18 -12 34 -58 25 -72 -4 -7 -6 -19 -3 -26 2 -6 0 -15 -5 -18 -16 -10 -40
4 -47 27 -7 22 -7 22 -15 -3 -7 -23 -8 -22 -9 10 -1 20 -8 62 -16 93 -8 32
-15 79 -15 106 0 32 -9 64 -26 97 -42 81 -73 185 -60 200 17 20 21 17 50 -27z
m3151 -31 c26 -20 27 -24 21 -82 -3 -34 -6 -65 -6 -71 -1 -5 6 -64 15 -130 16
-125 20 -193 29 -460 4 -88 7 -167 8 -175 0 -8 0 -67 -2 -130 -2 -106 -3 -111
-11 -60 -5 30 -16 94 -24 142 -11 59 -17 170 -19 345 -3 204 -7 267 -20 303
-9 25 -16 52 -16 60 0 8 -6 27 -14 41 -9 18 -10 32 -4 43 6 11 6 21 0 29 -10
13 -20 59 -25 125 -3 38 -1 42 18 42 12 0 35 -10 50 -22z m-4973 -144 c52 -15
98 -49 98 -73 0 -21 -48 -53 -112 -73 -93 -30 -114 -53 -124 -137 -4 -36 -2
-78 3 -96 7 -20 7 -39 1 -49 -12 -22 -11 -196 1 -228 7 -18 5 -47 -5 -94 -8
-38 -17 -110 -19 -159 -2 -50 -8 -102 -13 -115 -12 -33 -6 -95 13 -149 8 -24
15 -56 15 -72 0 -66 -88 -94 -135 -43 -26 28 -26 44 -1 142 9 33 19 94 22 134
3 40 12 116 20 168 8 52 17 113 20 135 3 22 12 54 20 72 18 39 18 60 0 70 -17
10 -48 125 -75 287 -32 185 -28 226 27 273 23 20 39 23 106 23 44 0 106 -7
138 -16z m2155 -126 c-2 -7 2 -17 8 -23 7 -5 15 -25 19 -43 5 -27 1 -38 -19
-58 -30 -30 -31 -34 -6 -34 17 0 19 -6 16 -57 -1 -31 3 -73 9 -92 11 -33 13
-148 3 -158 -10 -9 -57 11 -92 39 l-37 31 42 39 c30 28 40 44 35 57 -3 11 -1
40 6 65 10 41 9 49 -11 82 -15 27 -19 45 -14 63 4 14 8 33 10 41 3 17 26 60
32 60 2 0 2 -6 -1 -12z m-968 -87 c16 -10 6 -31 -15 -31 -28 0 -13 -26 34 -57
60 -40 132 -76 219 -108 37 -14 93 -40 123 -58 30 -18 76 -41 102 -51 26 -10
51 -22 55 -28 4 -7 1 -9 -8 -6 -8 3 -41 13 -74 22 -211 60 -434 165 -515 244
-53 51 -54 54 -36 68 22 15 93 19 115 5z m725 -184 c6 -26 -41 -35 -58 -11
-12 16 -13 16 -11 -7 1 -13 3 -37 4 -52 0 -16 8 -30 19 -34 27 -11 39 -26 44
-61 3 -24 1 -32 -11 -33 -14 -1 -14 -2 0 -6 12 -3 16 -13 14 -36 -5 -55 39
-90 101 -80 29 5 39 12 48 35 13 36 25 35 61 -2 33 -35 53 -85 61 -155 3 -27
10 -68 15 -90 4 -22 9 -57 9 -77 0 -21 4 -38 9 -38 8 0 21 -42 27 -90 2 -14 6
-36 10 -50 4 -14 8 -31 8 -39 1 -8 7 -16 14 -18 12 -5 14 1 16 42 1 18 26 30
26 13 0 -5 0 -21 0 -38 0 -26 -4 -30 -28 -30 -28 0 -29 -2 -31 -54 -1 -51 0
-54 20 -49 16 4 20 2 17 -8 -3 -8 -13 -13 -22 -13 -9 1 -16 -2 -16 -7 0 -5 7
-9 15 -9 8 0 15 -7 15 -15 0 -8 -8 -15 -17 -15 -14 0 -15 -2 -5 -9 11 -6 10
-21 -3 -77 -9 -38 -18 -85 -20 -104 -2 -19 -20 -105 -39 -191 -20 -86 -38
-174 -41 -195 -2 -21 -7 -50 -10 -64 -3 -14 -8 -41 -11 -60 -3 -19 -7 -44 -8
-55 -2 -11 -4 -30 -5 -42 0 -14 -7 -23 -17 -23 -12 0 -14 7 -10 28 7 31 15 95
21 162 2 25 6 52 8 60 11 32 37 157 42 200 3 25 10 62 16 84 24 91 -7 222 -66
273 -14 13 -25 33 -25 48 0 14 -4 25 -8 25 -4 0 -16 15 -26 33 -10 17 -31 46
-46 62 -15 17 -31 46 -34 66 -4 20 -20 56 -36 80 -17 26 -30 57 -30 76 0 17
-7 39 -16 47 -10 10 -11 16 -4 16 7 0 1 15 -12 33 -40 52 -53 122 -29 151 6 7
7 17 3 21 -4 5 1 5 10 2 12 -4 15 -2 11 9 -6 17 -33 19 -33 2 0 -9 -4 -8 -10
2 -15 23 -12 30 13 31 21 0 21 1 2 9 -18 7 -19 8 -2 15 20 8 23 31 5 38 -10 4
-10 6 -1 6 6 1 15 -3 18 -9 3 -5 14 -10 23 -10 15 0 15 2 2 10 -13 9 -13 10 0
10 9 1 6 5 -7 10 -12 5 -25 22 -29 37 -4 15 -16 45 -27 66 -15 27 -18 40 -10
45 9 5 9 18 0 51 -11 40 -10 44 10 61 28 22 70 21 77 -3z m-173 -357 c44 0 45
-3 55 -141 l7 -97 -32 -32 c-30 -32 -35 -33 -133 -41 -117 -10 -166 -20 -258
-53 -60 -22 -65 -22 -92 -7 -39 22 -31 42 25 62 56 20 97 45 97 60 0 15 -45
54 -162 141 -60 44 -108 86 -108 95 0 12 9 10 43 -10 23 -13 84 -37 136 -52
82 -24 106 -27 180 -22 48 3 107 0 134 -6 44 -10 50 -9 70 11 21 22 21 22 2
37 -15 12 -38 15 -95 12 -41 -3 -109 1 -150 8 l-75 12 50 6 c28 3 70 9 95 14
24 4 74 7 110 6 36 -1 81 -2 101 -3z m-162 -480 c36 -9 38 -12 38 -52 0 -43
-1 -43 -36 -43 -33 0 -36 -3 -39 -32 -3 -28 3 -36 39 -63 23 -16 53 -30 66
-30 23 0 53 -20 53 -35 0 -4 13 -19 29 -35 22 -20 33 -24 42 -16 9 8 10 7 6
-6 -3 -10 -2 -20 3 -23 5 -3 7 -12 4 -20 -4 -9 4 -19 20 -26 27 -13 35 -34 15
-41 -7 -2 0 -17 15 -35 19 -23 26 -42 26 -74 0 -66 -18 -81 -105 -94 -69 -11
-113 -31 -143 -66 -14 -18 -64 -49 -118 -74 -72 -33 -96 -50 -104 -70 -21 -54
-11 -57 133 -45 196 17 240 25 258 46 6 8 28 14 48 14 l37 0 2 -55 c0 -44 -3
-57 -18 -65 -18 -10 -18 -11 6 -37 14 -15 22 -33 19 -41 -3 -7 -5 -27 -5 -44
0 -23 -11 -39 -47 -71 -88 -80 -123 -118 -172 -190 -27 -40 -58 -81 -70 -91
-18 -17 -21 -30 -21 -107 0 -99 10 -119 64 -119 25 0 41 9 73 44 26 28 48 43
60 41 10 -2 22 -4 26 -4 5 -1 5 -5 2 -11 -3 -5 7 -22 22 -37 30 -30 73 -40 73
-17 0 15 46 20 53 7 16 -29 15 -61 -2 -80 -10 -11 -22 -29 -25 -41 -12 -36
-35 -40 -131 -26 -132 21 -229 16 -268 -13 -17 -13 -41 -23 -54 -23 -16 0 -28
-11 -43 -40 -11 -21 -20 -47 -20 -57 -1 -33 -55 -118 -76 -118 -29 0 -32 60
-4 97 12 16 28 52 36 79 8 28 24 59 35 70 37 37 48 79 43 169 -8 146 -9 147
-55 154 -23 4 -61 20 -84 36 -24 17 -50 30 -57 30 -7 0 -30 5 -50 11 -27 7
-38 15 -38 29 0 18 7 20 85 20 64 0 95 5 123 19 40 20 42 21 70 21 10 0 47 19
83 43 35 23 82 50 104 58 28 10 41 21 43 37 4 29 -38 47 -131 56 -85 8 -114
19 -155 59 -49 47 -64 82 -67 163 -2 40 -9 83 -15 95 -10 18 -8 29 11 63 12
22 30 45 38 51 23 14 120 45 161 52 44 7 44 7 29 35 -7 12 -13 26 -12 29 2 7
-127 19 -212 19 -48 0 -66 4 -83 20 -23 22 -31 83 -12 95 6 3 10 14 10 23 0
25 184 25 223 0 31 -21 47 -22 82 -6 27 12 32 27 13 46 -6 6 -13 22 -15 34 -5
30 -28 47 -152 110 -150 76 -165 110 -66 150 123 49 220 66 284 48z m7859
-166 c47 -28 80 -83 112 -185 44 -142 53 -202 45 -299 -3 -47 -1 -124 4 -170
6 -47 13 -112 16 -144 7 -90 28 -145 73 -194 24 -27 57 -128 66 -207 6 -52 9
-299 3 -325 -9 -42 -20 -60 -37 -60 -46 0 -50 5 -120 169 -17 41 -58 112 -91
159 -33 46 -64 95 -69 107 -5 13 -8 64 -8 113 2 93 -6 117 -51 159 -11 10 -31
41 -45 69 l-26 52 16 88 c21 117 14 168 -35 291 -23 56 -44 122 -47 147 -9 65
11 131 59 192 36 46 47 54 75 54 19 0 46 -7 60 -16z m-11574 -145 c21 -18 43
-52 57 -87 18 -49 20 -71 16 -162 -5 -117 -22 -169 -62 -196 -24 -16 -95 -34
-195 -50 -48 -8 -72 19 -78 89 -3 44 1 64 27 120 17 37 33 79 35 95 14 111 42
173 89 202 44 28 71 25 111 -11z m6323 -29 c17 -10 37 -29 44 -42 7 -13 15
-25 18 -28 13 -11 51 -93 51 -111 0 -11 5 -16 13 -13 19 7 57 -10 92 -41 51
-46 168 -121 205 -133 19 -5 71 -18 115 -27 111 -23 124 -30 141 -73 33 -81
69 -149 121 -224 53 -77 267 -364 331 -444 40 -50 53 -112 28 -137 -12 -12
-31 -15 -74 -13 -71 3 -262 -53 -262 -77 0 -17 -57 -64 -90 -76 -42 -13 -225
-48 -260 -49 -119 -3 -173 -12 -201 -37 -37 -30 -62 -32 -96 -5 -21 17 -41 20
-116 20 -78 0 -88 -2 -77 -15 10 -12 10 -15 -3 -15 -8 0 -30 17 -50 39 -26 29
-39 56 -51 107 -8 38 -33 105 -54 149 -64 131 -67 145 -50 197 13 37 14 62 6
144 -7 66 -6 120 1 164 15 93 78 366 90 389 8 14 4 34 -16 82 -35 86 -41 183
-15 225 20 32 73 63 107 64 11 0 34 -9 52 -20z m5800 -318 c4 -74 -3 -99 -40
-139 -11 -12 -25 -32 -31 -44 -13 -26 -68 -49 -74 -30 -2 6 -12 11 -23 11 -49
0 -76 74 -45 123 8 12 17 38 20 58 7 42 16 51 69 70 20 7 37 15 37 19 0 3 19
5 42 5 l41 0 4 -73z m-209 -1484 l-3 -93 -29 2 c-16 1 -30 4 -33 6 -2 2 -8 32
-13 65 -11 66 -5 93 30 130 l22 23 14 -20 c11 -15 14 -45 12 -113z"/>
<path d="M2678 8045 c-35 -24 -68 -65 -68 -86 0 -26 33 -77 57 -88 22 -10 30
-8 60 15 19 14 41 41 50 59 15 30 14 36 -3 71 -26 51 -52 59 -96 29z"/>
<path d="M7269 1430 c11 -30 23 -86 27 -125 5 -54 13 -78 34 -105 48 -61 62
-98 55 -141 -5 -31 -4 -39 9 -39 16 0 82 36 103 56 21 20 26 78 9 118 -16 39
-117 161 -170 206 -16 14 -43 38 -59 55 l-28 29 20 -54z"/>
<path d="M1170 15110 c10 -19 26 -23 123 -34 27 -3 54 -9 60 -13 33 -21 95 -7
130 28 34 36 22 39 -153 39 -166 0 -170 0 -160 -20z"/>
<path d="M2640 15083 c0 -69 -35 -198 -70 -260 -31 -54 -38 -91 -21 -109 20
-20 61 -210 61 -284 0 -94 -17 -130 -90 -187 -128 -100 -134 -113 -100 -186
l22 -46 -22 -23 c-32 -34 -56 -85 -70 -150 -11 -49 -11 -67 4 -128 17 -68 17
-75 1 -135 -16 -59 -16 -68 -1 -137 28 -124 57 -148 143 -116 29 11 62 16 76
13 13 -4 48 -31 77 -61 29 -30 57 -54 63 -54 18 0 -33 -38 -91 -66 -31 -16
-59 -32 -62 -35 -3 -3 -32 -15 -65 -26 -54 -17 -63 -25 -92 -72 -37 -62 -65
-139 -98 -268 -16 -61 -35 -109 -59 -145 -30 -43 -36 -62 -36 -104 l0 -50 -74
-48 c-110 -71 -112 -85 -18 -148 85 -58 129 -72 201 -64 100 12 141 60 141
164 0 55 3 66 26 87 33 30 102 34 164 9 46 -19 51 -40 20 -92 -28 -46 -26 -97
6 -129 23 -23 31 -25 78 -19 103 12 159 59 160 134 l1 47 -65 -3 c-59 -3 -67
-1 -88 21 l-24 25 29 32 c28 31 33 33 106 34 75 2 79 3 115 39 l36 37 7 202
c3 112 12 235 19 275 10 58 11 78 0 102 -13 32 -22 37 -83 46 -71 12 -112 31
-109 51 2 11 9 22 15 26 7 4 8 8 3 8 -12 0 35 46 54 52 8 3 39 -4 68 -14 67
-25 92 -20 204 36 93 47 125 51 179 19 23 -14 29 -14 55 0 16 8 52 37 80 64
42 40 54 59 63 101 12 58 5 86 -29 117 -19 17 -34 19 -123 17 -68 -1 -110 2
-127 11 -24 12 -25 17 -25 97 -1 122 -29 163 -152 219 -29 14 -53 28 -53 32 0
5 9 23 20 41 25 42 25 64 -1 113 -49 93 -64 222 -32 273 10 15 30 41 45 57 43
46 53 88 49 205 -7 258 -10 228 37 304 23 39 42 76 42 83 0 10 -58 13 -295 13
l-295 0 0 -47z m455 -1347 c9 -9 20 -16 25 -16 17 0 -3 -40 -24 -46 -47 -16
-376 -9 -376 8 0 5 5 6 10 3 6 -3 13 0 16 9 3 8 24 18 47 22 23 3 58 15 77 26
29 16 49 19 122 15 62 -3 91 -9 103 -21z"/>
<path d="M10185 14450 c30 -8 30 -8 -7 -9 -42 -1 -48 -10 -19 -28 11 -7 21
-23 23 -35 2 -19 8 -22 31 -20 15 1 27 -2 27 -8 0 -18 93 -11 123 9 18 12 25
21 18 26 -6 3 -9 10 -6 15 3 5 -7 12 -22 15 -15 4 -36 10 -45 16 -10 5 -34 9
-53 9 -19 0 -35 5 -35 10 0 6 -15 9 -32 9 l-33 -1 30 -8z"/>
<path d="M11048 14433 c-19 -24 -15 -111 7 -158 17 -33 26 -41 54 -43 24 -3
40 3 57 19 31 29 30 33 -5 65 -16 14 -39 47 -50 74 -23 53 -43 67 -63 43z"/>
<path d="M9885 14293 c-10 -15 -39 -52 -64 -81 -35 -42 -43 -57 -35 -70 6 -9
16 -18 24 -20 8 -3 10 0 6 7 -6 8 -1 10 16 6 17 -4 30 1 48 19 13 15 28 26 34
26 25 0 34 35 21 85 -14 59 -26 65 -50 28z"/>
<path d="M6615 13880 c18 -8 17 -9 -7 -9 -16 -1 -28 -6 -28 -12 0 -5 -4 -7
-10 -4 -5 3 -10 -1 -10 -9 0 -8 5 -18 10 -21 6 -3 15 -26 21 -51 9 -35 16 -44
33 -44 27 0 66 39 66 65 0 10 3 16 6 12 4 -3 13 1 21 9 8 8 18 12 23 9 4 -3
10 5 13 16 3 12 10 18 16 14 6 -3 11 -1 11 4 0 6 -18 11 -39 11 -22 0 -42 4
-45 9 -4 5 -27 9 -54 9 -34 0 -41 -3 -27 -8z"/>
<path d="M939 13108 c-26 -21 -42 -91 -37 -158 4 -53 9 -65 36 -91 18 -17 32
-27 32 -23 0 5 5 3 12 -4 24 -24 33 -11 33 51 1 39 7 71 17 87 19 29 30 110
18 129 -11 19 -91 26 -111 9z"/>
<path d="M970 12318 c-70 -48 -63 -82 19 -93 53 -7 103 11 115 40 8 23 -46 75
-77 75 -13 0 -39 -10 -57 -22z"/>
<path d="M74 12281 c-17 -10 -41 -33 -53 -49 -21 -30 -21 -37 -21 -455 0 -417
0 -426 20 -432 39 -12 55 4 99 108 23 56 55 126 70 155 33 67 121 157 169 173
47 16 61 35 62 84 0 52 -27 179 -45 216 -17 31 -22 92 -11 126 9 28 -6 37 -61
34 -29 -1 -64 8 -109 29 -79 35 -80 35 -120 11z"/>
<path d="M6126 12260 c-17 -6 -18 -7 -1 -23 11 -12 14 -22 8 -30 -11 -13 -10
-63 0 -74 4 -3 7 -17 7 -30 0 -12 5 -23 10 -23 6 0 10 -11 10 -25 0 -14 5 -25
11 -25 7 0 22 -12 36 -26 27 -30 55 -28 59 4 3 16 -1 22 -16 22 -11 0 -20 5
-20 10 0 6 -7 10 -15 10 -8 0 -15 7 -15 15 0 8 7 15 16 15 12 0 13 5 7 23 -4
12 -8 39 -8 60 0 28 -4 37 -17 37 -10 0 -18 6 -18 13 0 25 -34 55 -54 47z"/>
<path d="M9072 11803 c-4 -10 -7 -52 -6 -93 2 -92 -15 -140 -56 -158 -34 -16
-39 -44 -11 -64 10 -7 17 -21 15 -30 -1 -10 3 -18 9 -18 7 0 5 -5 -3 -10 -13
-9 -13 -10 0 -10 11 -1 10 -4 -4 -15 -15 -12 -16 -15 -5 -15 9 0 21 -11 27
-24 6 -13 21 -27 33 -31 13 -4 29 -14 37 -22 22 -21 35 -12 63 48 19 38 24 59
17 72 -5 9 -5 17 -1 17 4 0 0 5 -10 11 -14 8 -17 17 -12 37 12 47 13 97 2 111
-6 7 -13 25 -15 40 -2 14 -14 50 -28 80 -13 29 -24 62 -24 72 0 24 -17 25 -28
2z"/>
<path d="M10020 11699 c0 -4 -11 -10 -25 -13 -24 -6 -24 -8 -19 -79 3 -39 5
-79 5 -87 0 -8 -1 -36 -1 -62 -2 -76 12 -88 97 -88 42 0 73 -4 73 -10 0 -5 8
-10 18 -10 12 0 13 3 5 8 -9 6 -5 13 12 26 14 10 25 25 25 32 0 7 8 20 17 30
28 27 21 75 -15 113 -18 19 -32 37 -32 41 0 4 -16 11 -36 15 -55 10 -74 26
-74 60 0 26 -4 31 -25 31 -14 0 -25 -3 -25 -7z"/>
<path d="M4965 11565 c-14 -13 -25 -32 -25 -43 0 -10 -7 -27 -15 -38 -20 -26
-19 -54 3 -54 9 0 35 9 57 21 67 36 281 26 414 -20 53 -19 53 -19 86 3 18 11
31 24 29 27 -2 3 9 6 23 5 21 -1 30 5 37 25 5 15 6 34 3 43 -10 24 -71 48 -98
37 -15 -5 -32 -3 -48 6 -19 9 -80 13 -234 13 -207 0 -208 0 -232 -25z"/>
<path d="M9576 11562 c-3 -4 -30 -21 -62 -37 -46 -23 -53 -30 -37 -36 17 -6
41 -76 58 -168 6 -33 24 -51 51 -51 27 0 26 -2 15 59 -10 49 -3 78 25 105 17
18 23 103 9 126 -7 12 -52 13 -59 2z"/>
<path d="M575 11483 c-76 -17 -114 -35 -124 -61 -14 -35 -16 -97 -6 -197 8
-87 -1 -74 118 -182 41 -38 42 -41 27 -110 -7 -32 -23 -62 -47 -88 -35 -40
-63 -92 -63 -118 0 -23 237 -18 272 5 25 16 108 165 108 193 0 27 -47 63 -98
76 -31 7 -58 21 -63 31 -11 20 -2 66 16 88 7 8 16 33 20 56 3 22 13 54 21 69
12 23 12 35 3 64 -12 36 -93 160 -113 173 -12 8 -38 9 -71 1z"/>
<path d="M5425 11310 c-3 -5 -30 -10 -58 -10 -142 0 -303 -92 -352 -200 -26
-58 -12 -69 58 -47 30 9 74 17 98 17 39 1 42 2 26 14 -16 13 -16 15 4 40 25
32 32 32 48 2 15 -28 61 -53 61 -33 0 8 17 12 48 13 72 0 202 25 202 38 0 6
-7 21 -15 33 -10 14 -12 24 -5 28 16 10 11 61 -7 77 -39 32 -96 47 -108 28z"/>
<path d="M28 11239 c-27 -20 -28 -23 -28 -120 l0 -99 27 11 c25 9 72 7 91 -5
5 -3 13 -22 16 -41 6 -32 9 -34 29 -24 25 14 56 49 57 65 0 7 -11 19 -25 28
-14 9 -25 24 -25 34 0 41 -24 96 -57 133 -40 45 -48 46 -85 18z"/>
<path d="M9983 11205 c-13 -9 -20 -22 -17 -30 4 -8 1 -15 -6 -15 -6 0 -8 -4
-5 -10 3 -5 1 -19 -5 -30 -9 -17 -5 -25 25 -55 50 -51 68 -81 60 -105 -3 -11
-2 -20 3 -20 11 0 20 -39 29 -120 3 -30 7 -57 9 -59 2 -2 17 11 35 28 26 27
36 31 64 25 42 -7 89 30 90 72 1 16 5 44 9 62 5 20 4 38 -3 46 -6 7 -8 16 -4
19 3 4 1 7 -5 7 -7 0 -12 10 -12 23 0 18 -2 19 -10 7 -8 -12 -10 -11 -10 6 0
28 -17 34 -90 34 -32 0 -62 4 -65 10 -3 5 -21 17 -40 26 -19 9 -35 21 -35 26
0 5 5 6 10 3 6 -3 10 0 10 7 0 7 3 23 6 36 8 26 -11 29 -43 7z"/>
<path d="M9633 11178 c-43 -11 -50 -25 -10 -21 l32 4 -35 -15 c-19 -7 -55 -19
-80 -25 -25 -7 -74 -21 -110 -32 -36 -10 -101 -23 -145 -28 -89 -10 -150 -29
-125 -40 14 -6 17 -12 25 -53 2 -9 10 -29 19 -45 9 -18 13 -48 11 -79 -4 -56
30 -208 52 -230 27 -27 36 -16 29 36 -5 34 -2 60 8 84 8 19 12 37 8 40 -3 3 1
6 8 6 10 0 12 16 7 71 -4 42 -2 80 5 94 11 24 44 40 53 25 3 -5 24 -11 47 -15
56 -10 123 -56 147 -103 14 -27 17 -37 32 -112 6 -30 15 -64 20 -75 5 -11 13
-67 19 -124 5 -57 16 -117 24 -133 10 -20 11 -28 3 -28 -8 0 -9 -3 -1 -8 5 -4
9 -22 8 -39 0 -20 4 -33 11 -33 6 0 12 -6 12 -12 1 -30 10 -43 43 -60 19 -10
41 -18 50 -18 29 -1 70 -47 70 -80 0 -16 5 -30 10 -30 6 0 10 -13 10 -30 0
-16 5 -30 11 -30 7 0 8 -22 4 -65 -4 -38 -3 -71 3 -78 5 -6 12 -25 16 -41 11
-44 -14 -72 -76 -86 -29 -7 -66 -21 -83 -32 -16 -10 -39 -18 -50 -18 -19 -1
-69 -30 -51 -30 5 0 3 -6 -3 -14 -14 -17 26 -129 49 -135 8 -3 49 -5 91 -6 41
-1 80 -4 86 -8 5 -3 23 -4 39 0 45 9 59 6 99 -19 22 -14 38 -34 42 -50 7 -36
21 -35 80 2 26 17 54 30 64 30 9 0 21 6 26 13 13 16 26 177 15 177 -5 0 -15
11 -22 25 -7 14 -19 25 -25 25 -17 0 -45 33 -45 53 0 10 -8 17 -19 17 -16 0
-18 7 -14 58 2 31 8 68 13 82 5 14 9 47 7 73 -2 38 -7 51 -24 60 -25 14 -135
132 -151 164 -16 30 -15 63 3 69 8 4 15 10 15 15 0 26 109 89 153 89 13 0 38
-17 61 -40 21 -22 44 -40 50 -40 15 0 39 132 31 170 -8 37 -54 76 -106 90 -28
8 -43 19 -52 38 -18 42 -37 57 -55 46 -14 -9 -89 -194 -113 -277 -11 -40 -18
-42 -72 -21 -9 3 -16 -3 -20 -15 -3 -13 -13 -21 -25 -21 -12 0 -24 -5 -27 -10
-4 -6 -11 -8 -16 -4 -5 3 -16 1 -22 -5 -9 -7 -21 -5 -41 8 -31 21 -34 30 -14
42 9 6 9 9 1 9 -12 0 -12 7 7 80 6 25 15 68 20 95 5 28 17 79 28 115 32 105
45 358 19 388 -8 10 -5 24 13 57 13 24 21 47 17 51 -3 4 -32 2 -63 -5 -78 -15
-92 -14 -96 7 -2 16 -8 17 -35 10z"/>
<path d="M5983 10887 c-24 -105 -26 -127 -12 -127 7 0 10 3 7 6 -3 3 14 23 38
46 41 38 45 39 77 29 67 -22 74 -97 14 -138 -38 -26 -93 -30 -121 -8 -22 17
-45 8 -91 -37 -16 -16 -53 -40 -83 -55 -50 -24 -58 -25 -147 -19 l-95 7 -12
-27 c-11 -24 -10 -29 17 -51 44 -35 75 -45 122 -38 32 5 63 -1 125 -21 46 -15
91 -27 100 -27 10 1 20 -2 23 -8 12 -19 215 1 215 22 0 4 8 5 18 2 34 -8 68
32 71 85 1 7 15 26 32 41 77 71 34 180 -127 316 -55 47 -67 52 -111 53 l-49 2
-11 -53z"/>
<path d="M10926 10781 c-43 -29 -47 -43 -31 -97 19 -63 18 -80 -4 -128 -14
-29 -17 -46 -10 -64 5 -13 9 -36 9 -52 0 -22 7 -33 29 -44 36 -19 62 -57 51
-77 -5 -8 -3 -22 6 -33 13 -19 14 -18 14 11 0 18 8 38 21 49 36 32 51 71 38
95 -7 13 -8 41 -4 75 5 46 10 55 35 65 32 15 31 27 -10 79 -15 20 -39 59 -54
88 -29 57 -44 63 -90 33z"/>
<path d="M8904 10608 c-4 -13 -7 -36 -6 -53 1 -37 102 -245 119 -245 7 0 13
-4 13 -8 0 -4 11 -9 25 -10 23 -2 25 2 25 36 0 69 -25 147 -63 197 -20 26 -37
52 -37 56 0 5 -7 9 -15 9 -8 0 -19 9 -25 20 -14 26 -27 25 -36 -2z"/>
<path d="M6553 10399 c-9 -46 -41 -54 -98 -23 -42 24 -49 25 -95 14 -28 -7
-50 -16 -50 -20 0 -14 -70 -41 -90 -35 -10 3 -21 14 -23 23 -4 13 -5 11 -6 -5
-1 -19 -6 -21 -53 -19 -29 1 -69 -2 -88 -7 -38 -10 -100 -52 -100 -68 0 -18
-37 -50 -52 -44 -8 3 -23 -3 -33 -15 -21 -23 -64 -26 -142 -8 -36 9 -52 17
-48 25 6 19 -3 16 -65 -17 -30 -17 -67 -30 -81 -30 -57 0 -108 -100 -83 -164
9 -25 27 -19 64 19 19 19 44 35 56 35 12 0 28 7 35 16 31 37 137 57 245 46 43
-5 95 -5 114 0 133 32 242 44 288 31 l24 -6 -27 -23 c-15 -13 -32 -21 -36 -18
-5 3 -9 1 -9 -4 0 -11 -37 -25 -57 -23 -7 1 -13 -2 -13 -7 0 -5 -28 -22 -62
-37 -59 -27 -72 -29 -198 -29 -74 0 -147 4 -162 8 -42 12 -35 -8 10 -30 20
-10 60 -19 87 -20 28 -1 58 -3 67 -3 16 -1 16 -4 -2 -43 l-20 -43 28 -23 c37
-31 126 -72 155 -72 13 0 32 9 43 21 25 28 87 59 121 60 45 2 165 41 170 56 4
10 9 11 19 2 14 -11 15 -10 18 11 0 6 6 14 13 18 6 4 20 48 29 97 15 79 22 95
54 127 29 30 47 38 88 44 49 6 53 9 63 43 8 29 7 46 -10 94 -11 31 -17 57 -13
58 13 1 -33 18 -51 18 -12 1 -19 -9 -24 -30z"/>
<path d="M10925 10154 c-41 -14 -125 -96 -125 -122 0 -27 48 -62 85 -62 19 0
35 5 35 10 0 6 6 5 14 -2 8 -7 12 -16 9 -20 -2 -5 5 -8 16 -8 24 0 18 26 -7
33 -11 3 -8 5 7 6 26 1 78 16 126 36 41 17 43 50 5 74 -16 9 -39 29 -50 44
-24 31 -53 33 -115 11z"/>
<path d="M9132 10122 c-12 -11 -18 -22 -14 -26 4 -4 -1 -12 -11 -17 -9 -6 -17
-19 -17 -29 0 -10 -4 -22 -10 -25 -17 -10 -11 -44 9 -55 27 -14 54 -13 87 5
16 8 37 15 46 15 9 0 20 5 23 10 3 6 15 10 26 10 36 0 10 19 -36 26 -42 6 -46
9 -57 48 -15 55 -21 60 -46 38z"/>
<path d="M12331 10041 c-6 -4 -27 -40 -47 -81 -21 -41 -41 -77 -46 -78 -5 -2
13 -31 40 -65 91 -116 91 -116 90 -265 0 -74 2 -136 5 -138 8 -8 37 57 31 68
-3 5 -1 15 5 22 6 7 9 20 5 29 -3 8 -1 18 5 22 20 12 13 127 -10 170 -16 30
-20 50 -16 85 6 49 40 162 58 194 6 10 7 22 2 27 -10 10 -108 18 -122 10z"/>
<path d="M8024 9915 c-10 -8 -43 -20 -71 -26 -32 -7 -53 -18 -53 -26 0 -7 6
-13 13 -13 6 0 58 -3 114 -6 98 -5 104 -4 142 21 22 15 38 32 35 40 -10 25
-149 33 -180 10z"/>
<path d="M12025 9916 c-20 -13 -83 -32 -97 -28 -14 3 -1 -56 19 -90 31 -53 69
-48 140 18 l32 31 -24 13 c-14 7 -27 21 -31 32 -3 10 -10 18 -15 18 -6 0 -7 5
-4 10 8 14 3 13 -20 -4z"/>
<path d="M10997 9906 c-4 -9 2 -17 14 -21 22 -7 26 -35 4 -35 -8 0 -15 -3 -15
-7 0 -5 -19 -8 -42 -8 l-43 0 0 -60 c0 -49 7 -74 35 -130 19 -39 35 -88 36
-110 3 -53 13 -82 30 -89 22 -8 43 4 37 21 -3 8 -6 24 -7 36 -1 12 -7 21 -14
20 -18 -4 -14 10 7 29 26 22 57 125 66 218 l7 75 -37 18 c-22 10 -33 22 -29
29 4 7 3 8 -4 4 -7 -4 -12 -1 -12 8 0 20 -26 21 -33 2z"/>
<path d="M9185 9847 c-4 -10 -5 -36 -2 -57 3 -22 1 -42 -4 -45 -4 -3 -6 -12
-2 -21 3 -8 -2 -34 -11 -57 -16 -43 -15 -71 4 -106 20 -38 90 -40 126 -4 24
24 13 113 -20 163 -13 20 -30 56 -37 79 -8 26 -17 40 -25 37 -7 -3 -15 3 -17
12 -4 16 -5 15 -12 -1z"/>
<path d="M10648 9338 c-2 -13 0 -45 5 -72 5 -31 5 -65 -2 -90 -16 -67 -23
-199 -11 -230 6 -16 13 -50 15 -77 4 -42 2 -49 -17 -55 -19 -6 -20 -7 -4 -16
11 -6 22 -6 31 2 8 6 19 9 25 5 5 -3 10 -1 10 5 0 23 195 -5 262 -38 24 -11
60 -28 81 -37 41 -18 43 -21 23 -44 -23 -26 -46 -108 -46 -162 0 -28 10 -110
22 -182 17 -104 19 -136 10 -161 -7 -16 -10 -32 -7 -34 8 -9 119 110 136 146
10 20 18 31 18 24 1 -7 6 -10 11 -7 6 4 8 11 4 17 -3 5 5 22 18 36 48 54 49
56 32 91 -9 17 -22 68 -30 114 -25 147 -30 160 -77 181 -24 10 -57 38 -77 63
-19 25 -40 50 -46 57 -5 6 -17 25 -26 41 -8 17 -28 52 -43 79 -27 47 -28 51
-17 106 18 86 17 89 -28 96 -22 4 -40 10 -40 15 0 4 -21 20 -47 35 -62 36 -94
61 -92 71 2 9 -58 42 -78 43 -6 0 -13 -10 -15 -22z"/>
<path d="M10090 9146 c0 -33 24 -88 49 -110 12 -11 21 -15 21 -10 0 5 4 2 9
-6 6 -8 7 -27 4 -42 -5 -25 -3 -28 21 -28 16 0 25 -4 21 -10 -3 -5 -2 -10 2
-10 5 0 17 -13 26 -30 10 -16 24 -30 31 -30 18 0 22 37 18 138 -3 65 -7 82
-19 82 -12 0 -14 -9 -9 -44 7 -47 -6 -69 -27 -46 -10 10 -8 11 8 6 15 -5 17
-4 9 4 -9 9 -17 9 -33 1 -12 -7 -21 -10 -22 -9 -8 32 -6 40 11 35 11 -3 21 1
24 10 3 7 0 13 -7 12 -33 -4 -57 2 -57 16 0 8 5 15 12 15 6 0 8 3 5 7 -4 3 -2
12 4 19 8 10 3 18 -23 34 -46 28 -78 27 -78 -4z"/>
<path d="M12373 6851 c-29 -9 -55 -20 -60 -24 -4 -5 1 -5 12 -1 16 6 18 5 9
-7 -50 -64 2 -117 92 -93 21 6 23 11 36 119 4 26 -22 28 -89 6z"/>
<path d="M11920 6759 c-25 -5 -78 -14 -119 -19 -41 -6 -78 -13 -81 -15 -14 -9
-216 -36 -308 -42 -51 -3 -124 -13 -164 -22 l-71 -16 25 -28 c22 -24 33 -27
86 -27 93 0 222 30 222 51 0 5 18 12 40 15 22 4 40 10 40 15 0 5 8 9 18 9 13
0 14 -2 4 -9 -23 -14 44 -31 117 -30 64 1 191 15 162 18 -21 2 26 50 69 70 38
18 51 42 23 40 -10 -1 -38 -5 -63 -10z"/>
<path d="M12472 6326 c-27 -40 -26 -69 3 -75 11 -2 23 -8 26 -13 4 -6 18 -10
32 -10 15 0 34 -9 43 -19 20 -22 44 -25 44 -5 0 7 -12 26 -27 42 -32 34 -31
49 5 87 l26 27 -65 0 c-62 0 -65 -1 -87 -34z"/>
<path d="M957 5134 c-56 -30 -61 -109 -17 -262 16 -56 31 -113 33 -127 3 -25
17 -47 17 -27 0 6 11 27 24 47 41 60 84 156 105 234 17 66 18 78 6 102 -24 46
-112 63 -168 33z"/>
<path d="M12191 4531 c-8 -6 -12 -18 -8 -31 5 -20 0 -36 -25 -80 -45 -79 -50
-105 -54 -253 -2 -82 -8 -166 -14 -189 -6 -22 -9 -47 -5 -55 3 -9 0 -22 -6
-29 -8 -9 -9 -29 -4 -57 4 -23 8 -52 8 -64 1 -13 5 -23 10 -23 13 0 8 -39 -7
-47 -7 -4 -25 -26 -39 -48 -15 -22 -36 -51 -47 -65 -24 -30 -50 -119 -50 -172
0 -57 -29 -270 -40 -298 -18 -45 -124 -62 -171 -27 -8 7 -24 25 -35 42 -10 16
-28 40 -39 53 -11 13 -20 29 -20 35 -1 24 -38 133 -51 152 -8 11 -14 31 -14
45 -1 22 -2 23 -11 7 -6 -9 -14 -15 -20 -12 -5 3 -6 0 -3 -8 7 -20 -43 -115
-81 -153 -34 -34 -52 -98 -40 -145 8 -32 14 -159 20 -371 2 -97 9 -196 14
-220 27 -113 8 -174 -76 -257 -65 -64 -65 -64 -58 -108 5 -37 17 -55 71 -110
35 -36 64 -69 64 -74 0 -5 8 -8 18 -7 9 1 25 0 35 0 17 -2 17 -4 3 -24 -17
-24 -21 -60 -8 -72 14 -14 9 -78 -9 -130 -33 -89 -18 -211 22 -180 8 6 25 8
39 5 26 -7 41 -31 101 -169 22 -49 35 -69 41 -60 11 18 10 109 -2 188 -6 36
-13 115 -16 175 -3 61 -12 135 -20 165 -8 30 -18 118 -21 196 l-6 141 32 59
c39 72 51 88 73 97 15 5 16 22 11 164 -3 87 -10 166 -15 176 -12 23 -6 32 71
118 35 40 50 49 76 49 23 0 46 11 74 34 23 19 54 37 71 41 18 4 30 13 30 22 0
25 77 7 121 -28 22 -17 58 -41 81 -53 24 -12 50 -36 58 -51 29 -55 38 -59 45
-18 14 85 18 99 30 119 7 11 16 54 20 96 l7 75 -36 28 c-34 26 -35 29 -19 42
17 13 16 14 -5 8 -18 -5 -25 -2 -28 12 -3 11 -27 34 -55 51 -27 19 -51 42 -53
55 -11 50 -18 119 -22 234 -5 103 -3 125 10 139 15 14 16 13 16 -10 0 -14 4
-26 8 -26 12 0 56 52 60 70 9 41 9 110 0 150 -6 25 -10 59 -9 75 1 29 37 111
63 143 9 10 12 44 10 107 -2 74 1 100 18 137 18 40 19 53 9 97 -6 28 -15 53
-20 57 -5 3 -33 8 -62 10 -72 7 -77 10 -77 39 0 26 -14 32 -39 16z"/>
<path d="M13430 3102 c-32 -15 -35 -21 -38 -64 -3 -39 4 -63 39 -135 l43 -88
-2 -107 c-2 -67 1 -108 7 -108 6 0 23 21 38 48 15 26 35 56 45 66 17 19 38 75
38 103 0 6 12 26 26 43 23 27 25 34 15 56 -6 14 -16 57 -21 95 -14 100 -22
109 -95 109 -37 0 -73 -7 -95 -18z"/>
<path d="M13763 2880 c-15 -23 -16 -162 -2 -235 11 -58 14 -79 24 -195 4 -47
13 -105 20 -130 25 -83 36 -520 15 -588 -21 -68 -44 -116 -88 -184 -55 -83
-62 -127 -32 -193 13 -28 25 -83 30 -129 4 -45 22 -121 39 -170 17 -49 35
-125 41 -168 5 -44 21 -115 35 -159 14 -44 25 -86 25 -93 0 -7 7 -36 15 -64
12 -38 21 -52 34 -52 22 0 29 15 25 50 -9 70 -6 281 5 325 7 28 28 80 47 118
23 45 35 83 36 115 3 79 -12 407 -23 510 -6 53 -10 135 -9 180 1 57 -2 82 -9
77 -6 -3 -11 2 -11 13 0 11 -9 41 -21 68 -11 27 -25 60 -31 74 -6 14 -14 33
-19 43 -73 142 -115 340 -119 553 -1 88 -5 181 -9 207 -5 43 -7 46 -18 27z"/>
<path d="M11783 681 c13 -52 -14 -206 -59 -336 -61 -178 -60 -283 1 -225 13
12 45 36 71 54 58 38 72 72 56 133 -7 24 -12 90 -12 148 0 81 -5 119 -21 167
-22 64 -47 106 -36 59z"/>
<path d="M14337 530 c-26 -16 -50 -37 -53 -45 -4 -8 3 -39 14 -68 31 -80 55
-205 48 -254 -6 -44 -38 -116 -62 -141 -8 -7 -14 -15 -14 -18 0 -2 32 -4 70
-4 l70 0 0 280 c0 224 -3 280 -13 280 -7 0 -34 -13 -60 -30z"/>
<path d="M13238 93 c-19 -5 -30 -35 -25 -68 4 -18 13 -20 107 -23 91 -2 102
-1 96 13 -3 9 -6 20 -6 24 0 4 -18 19 -41 34 -39 26 -84 33 -131 20z"/>
</g>
</svg>
